<svg width="1200" height="1200" viewBox="0 0 1200 1200" fill="none" xmlns="http://www.w3.org/2000/svg">
<path d="M600 75V342.56C457.91 342.56 342.69 457.7 342.56 599.74L99.64 599.49C91.47 599.08 83.27 598.9 75 598.9C75.59 309.47 310.42 75 600 75Z" fill="#20A26C"/>
<path d="M1125 601.1C1124.41 890.53 889.58 1125 600 1125V857.44C742.09 857.44 857.31 742.3 857.44 600.26L1100.36 600.51C1108.53 600.92 1116.73 601.1 1125 601.1Z" fill="#115137"/>
<path d="M332.44 1125V1123.9C332.473 1096.79 328.213 1069.84 319.82 1044.06C403.642 1097.08 500.819 1125.15 600 1125H332.44Z" fill="#26CB85"/>
<path d="M155.37 879.28C129.429 870.776 102.299 866.456 74.9999 866.48V600C74.8413 698.82 102.709 795.66 155.37 879.28Z" fill="#26CB85"/>
<path d="M519.63 844.64C481.223 831.978 446.331 810.465 417.769 781.836C389.206 753.208 367.774 718.266 355.2 679.83C421.591 721.846 477.767 778.152 519.63 844.64Z" fill="#26CB85"/>
<path d="M600 1123.9V1125C500.818 1125.15 403.641 1097.08 319.82 1044.06C307.24 1005.63 285.803 970.69 257.237 942.067C228.671 913.444 193.777 891.937 155.37 879.28C102.709 795.66 74.8413 698.82 74.9999 600V599.46H99.6399C190.368 603.559 278.457 631.262 355.2 679.83C367.774 718.266 389.206 753.207 417.769 781.836C446.331 810.464 481.223 831.978 519.63 844.64C572.294 928.251 600.163 1025.09 600 1123.9Z" fill="#26CB85"/>
<path d="M880.18 155.94C796.359 102.922 699.181 74.8485 600 75H867.56V76.1C867.527 103.213 871.787 130.159 880.18 155.94Z" fill="#197A51"/>
<path d="M1125 600V600.54H1100.36C1009.63 596.441 921.543 568.738 844.8 520.17C832.226 481.734 810.794 446.792 782.231 418.164C753.669 389.536 718.777 368.022 680.37 355.36C627.705 271.749 599.837 174.915 600 76.1V75C699.181 74.8485 796.359 102.922 880.18 155.94C892.758 194.37 914.192 229.306 942.754 257.929C971.316 286.552 1006.21 308.061 1044.61 320.72C1097.28 404.338 1125.15 501.178 1125 600Z" fill="#197A51"/>
<path d="M844.8 520.17C778.409 478.154 722.233 421.848 680.37 355.36C718.777 368.022 753.669 389.536 782.231 418.164C810.794 446.792 832.227 481.734 844.8 520.17Z" fill="#197A51"/>
<path d="M1125 333.52V600C1125.16 501.18 1097.29 404.34 1044.63 320.72C1070.57 329.224 1097.7 333.544 1125 333.52Z" fill="#197A51"/>
</svg>
