<svg width="48" height="48" viewBox="0 0 48 48" fill="none" xmlns="http://www.w3.org/2000/svg">
<path d="M24 16V24L27 27" stroke="black" stroke-width="3" stroke-linecap="round" stroke-linejoin="round"/>
<path d="M39.0908 32.9067C42.3636 34.6739 44 35.5577 44 36.9999C44 38.4421 42.3636 39.3259 39.0908 41.0931L36.8622 42.2967C34.3488 43.6539 33.0922 44.3325 32.4878 43.8391C31.008 42.6307 33.3134 39.5121 33.8806 38.4073C34.4554 37.2879 34.445 36.6917 33.8806 35.5925C33.3134 34.4877 31.008 31.3691 32.4878 30.1607C33.0922 29.6673 34.3488 30.3459 36.8622 31.7031L39.0908 32.9067Z" stroke="black" stroke-width="3"/>
<path d="M26.0522 43.896C25.3776 43.9648 24.6928 44 24 44C12.9543 44 4 35.0456 4 24C4 12.9543 12.9543 4 24 4C35.0456 4 44 12.9543 44 24C44 25.3698 43.8622 26.7076 43.6 28" stroke="black" stroke-width="3" stroke-linecap="round"/>
</svg>
