<svg width="49" height="48" viewBox="0 0 49 48" fill="none" xmlns="http://www.w3.org/2000/svg">
<path d="M43.0021 14C45.2215 19.0884 45.2215 24.9116 43.0021 30M6.33127 30C4.11191 24.9116 4.11191 19.0884 6.33127 14" stroke="black" stroke-width="3" stroke-linecap="round" stroke-linejoin="round"/>
<path d="M30.6667 22C30.6667 25.3138 27.9805 28 24.6667 28C21.3529 28 18.6667 25.3138 18.6667 22C18.6667 18.6863 21.3529 16 24.6667 16C27.9805 16 30.6667 18.6863 30.6667 22Z" stroke="black" stroke-width="3"/>
<path d="M24.6667 7C32.7843 7 39.6667 13.8561 39.6667 22.1738C39.6667 30.624 32.6723 36.554 26.2117 40.5864C25.7409 40.8574 25.2085 41 24.6667 41C24.1249 41 23.5925 40.8574 23.1217 40.5864C16.6732 36.5146 9.66675 30.6532 9.66675 22.1738C9.66675 13.8561 16.5491 7 24.6667 7Z" stroke="black" stroke-width="3"/>
</svg>
