<svg width="25" height="24" viewBox="0 0 25 24" fill="none" xmlns="http://www.w3.org/2000/svg">
<path d="M2.5 12.5001C2.5 12.0087 2.5053 11.0172 2.5158 10.5244C2.5811 7.45886 2.6138 5.92609 3.7449 4.79066C4.8761 3.65523 6.4503 3.61568 9.5988 3.53657C11.5393 3.48781 13.4607 3.48781 15.4012 3.53656C18.5497 3.61566 20.1239 3.65521 21.255 4.79065C22.3862 5.92608 22.4189 7.45885 22.4842 10.5244C22.5053 11.5101 22.5052 12.4899 22.4842 13.4756C22.4189 16.5412 22.3862 18.0739 21.255 19.2094C20.1239 20.3448 18.5497 20.3843 15.4012 20.4634C14.5984 20.4836 13.7989 20.4954 13 20.4989" stroke="white" stroke-width="1.5" stroke-linecap="round" stroke-linejoin="round"/>
<path d="M17.5 8.5L14.558 10.2394C12.8428 11.2535 12.1572 11.2535 10.442 10.2394L7.5 8.5" stroke="white" stroke-width="1.5" stroke-linecap="round" stroke-linejoin="round"/>
<path d="M10.5 17.5H2.5M10.5 17.5C10.5 16.7998 8.5057 15.4915 8 15M10.5 17.5C10.5 18.2002 8.5057 19.5085 8 20" stroke="white" stroke-width="1.5" stroke-linecap="round" stroke-linejoin="round"/>
</svg>
