<svg width="49" height="48" viewBox="0 0 49 48" fill="none" xmlns="http://www.w3.org/2000/svg">
<path d="M7.88849 23.8848C5.99245 20.5786 5.07695 17.879 4.52493 15.1424C3.70849 11.0952 5.57687 7.14162 8.67201 4.61894C9.98015 3.55276 11.4797 3.91704 12.2533 5.3048L13.9996 8.43782C15.3838 10.9211 16.0759 12.1628 15.9387 13.4792C15.8014 14.7956 14.868 15.8677 13.0012 18.012L7.88849 23.8848ZM7.88849 23.8848C11.7263 30.5766 17.7489 36.6026 24.4485 40.4448M24.4485 40.4448C27.7547 42.3408 30.4543 43.2564 33.1909 43.8084C37.2381 44.6248 41.1916 42.7564 43.7142 39.6612C44.7804 38.3532 44.4162 36.8536 43.0285 36.08L39.8954 34.3336C37.412 32.9494 36.1705 32.2574 34.8541 32.3946C33.5377 32.5318 32.4655 33.4652 30.3213 35.332L24.4485 40.4448Z" stroke="black" stroke-width="3" stroke-linejoin="round"/>
<path d="M28.3333 6V11.6M38.2337 10.1016L34.2739 14.0614M42.3333 20H36.7333" stroke="black" stroke-width="3" stroke-linecap="round"/>
</svg>
