<svg width="501" height="101" viewBox="0 0 501 101" fill="none" xmlns="http://www.w3.org/2000/svg">
<path d="M37.5 25.6875V42.41C28.6194 42.41 21.4181 49.6062 21.41 58.4837L6.2275 58.4681C5.71687 58.4425 5.20438 58.4313 4.6875 58.4313C4.72437 40.3419 19.4013 25.6875 37.5 25.6875Z" fill="white"/>
<path d="M70.3125 58.5689C70.2756 76.6582 55.5987 91.3126 37.5 91.3126V74.5901C46.3806 74.5901 53.5819 67.3939 53.59 58.5164L68.7725 58.532C69.2831 58.5576 69.7956 58.5689 70.3125 58.5689Z" fill="white"/>
<path d="M20.7775 91.3124V91.2437C20.7796 89.5491 20.5133 87.865 19.9888 86.2537C25.2276 89.5673 31.3012 91.3219 37.5 91.3124H20.7775Z" fill="white"/>
<path d="M9.71067 75.955C8.08934 75.4235 6.39376 75.1535 4.68754 75.155V58.5C4.67763 64.6763 6.41938 70.7287 9.71067 75.955Z" fill="white"/>
<path d="M32.4768 73.7899C30.0764 72.9985 27.8956 71.6539 26.1105 69.8646C24.3253 68.0754 22.9858 65.8915 22.2 63.4893C26.3494 66.1153 29.8604 69.6344 32.4768 73.7899Z" fill="white"/>
<path d="M37.5 91.2438V91.3126C31.3012 91.322 25.2276 89.5675 19.9888 86.2538C19.2026 83.8518 17.8627 81.6682 16.0774 79.8793C14.292 78.0903 12.1111 76.7461 9.71067 75.9551C6.41938 70.7288 4.67763 64.6763 4.68754 58.5001V58.4663H6.22754C11.8981 58.7225 17.4036 60.4539 22.2 63.4894C22.9859 65.8917 24.3254 68.0755 26.1106 69.8648C27.8957 71.6541 30.0765 72.9987 32.4769 73.7901C35.7685 79.0158 37.5102 85.0679 37.5 91.2438Z" fill="white"/>
<path d="M55.0112 30.7463C49.7724 27.4326 43.6988 25.6781 37.5 25.6875H54.2225V25.7563C54.2205 27.4508 54.4867 29.135 55.0112 30.7463Z" fill="white"/>
<path d="M70.3125 58.5V58.5338H68.7725C63.102 58.2776 57.5965 56.5462 52.8 53.5107C52.0142 51.1084 50.6747 48.9246 48.8895 47.1353C47.1044 45.346 44.9236 44.0014 42.5232 43.21C39.2316 37.9843 37.4899 31.9322 37.5 25.7563V25.6875C43.6989 25.6781 49.7725 27.4326 55.0113 30.7463C55.7974 33.1482 57.137 35.3317 58.9222 37.1206C60.7073 38.9095 62.888 40.2538 65.2882 41.045C68.5799 46.2712 70.3221 52.3236 70.3125 58.5Z" fill="white"/>
<path d="M52.7999 53.5106C48.6505 50.8846 45.1395 47.3655 42.5231 43.21C44.9235 44.0014 47.1043 45.3459 48.8894 47.1352C50.6746 48.9245 52.0141 51.1084 52.7999 53.5106Z" fill="white"/>
<path d="M70.3126 41.8449V58.4999C70.3225 52.3237 68.5807 46.2712 65.2894 41.0449C66.9108 41.5764 68.6063 41.8464 70.3126 41.8449Z" fill="white"/>
<mask id="path-11-outside-1_117_15" maskUnits="userSpaceOnUse" x="89" y="17" width="411" height="68" fill="black">
<rect fill="white" x="89" y="17" width="411" height="68"/>
<path d="M126.346 67.1416L134.273 71.79C132.281 75.3317 129.486 78.1263 125.889 80.1738C122.32 82.1937 118.252 83.2036 113.687 83.2036C106.742 83.2036 101.084 80.9901 96.7119 76.563C92.3402 72.1082 90.1543 66.4914 90.1543 59.7124C90.1543 52.8781 92.3402 47.2474 96.7119 42.8203C101.084 38.3932 106.742 36.1797 113.687 36.1797C118.252 36.1797 122.32 37.2035 125.889 39.251C129.486 41.2708 132.281 44.0516 134.273 47.5933L126.346 52.2417C125.156 49.9728 123.454 48.1605 121.241 46.8047C119.055 45.4489 116.537 44.771 113.687 44.771C109.371 44.771 105.884 46.2236 103.228 49.1289C100.572 52.0065 99.2437 55.5343 99.2437 59.7124C99.2437 63.8905 100.572 67.4183 103.228 70.2959C105.884 73.1735 109.371 74.6123 113.687 74.6123C116.537 74.6123 119.055 73.9344 121.241 72.5786C123.454 71.2228 125.156 69.4105 126.346 67.1416ZM151.539 39.3755C155.163 37.245 159.175 36.1797 163.575 36.1797C167.974 36.1797 171.986 37.245 175.611 39.3755C179.236 41.4784 182.072 44.3283 184.119 47.9253C186.167 51.5223 187.19 55.4513 187.19 59.7124C187.19 63.9735 186.167 67.9025 184.119 71.4995C182.072 75.0688 179.236 77.9188 175.611 80.0493C171.986 82.1522 167.974 83.2036 163.575 83.2036C159.175 83.2036 155.163 82.1522 151.539 80.0493C147.942 77.9188 145.119 75.0688 143.072 71.4995C141.052 67.9025 140.042 63.9735 140.042 59.7124C140.042 55.4513 141.052 51.5223 143.072 47.9253C145.119 44.3283 147.942 41.4784 151.539 39.3755ZM156.104 72.4956C158.345 73.9067 160.835 74.6123 163.575 74.6123C166.314 74.6123 168.804 73.9067 171.045 72.4956C173.287 71.0845 175.002 69.2445 176.192 66.9756C177.409 64.7067 178.018 62.2856 178.018 59.7124C178.018 57.1392 177.409 54.7181 176.192 52.4492C175.002 50.1803 173.287 48.3403 171.045 46.9292C168.804 45.4904 166.314 44.771 163.575 44.771C160.835 44.771 158.345 45.4904 156.104 46.9292C153.863 48.3403 152.133 50.1803 150.916 52.4492C149.726 54.7181 149.131 57.1392 149.131 59.7124C149.131 62.2856 149.726 64.7067 150.916 66.9756C152.133 69.2445 153.863 71.0845 156.104 72.4956ZM200.596 76.6045C196.418 72.2051 194.329 66.5744 194.329 59.7124C194.329 52.8504 196.418 47.2197 200.596 42.8203C204.774 38.3932 210.045 36.1797 216.409 36.1797C222.109 36.1797 227.02 38.2826 231.143 42.4883V19.6196H240.315V81.917H231.558V76.48C227.518 80.9624 222.469 83.2036 216.409 83.2036C210.045 83.2036 204.774 81.0039 200.596 76.6045ZM207.444 49.0874C204.76 51.882 203.418 55.4237 203.418 59.7124C203.418 64.0011 204.76 67.5566 207.444 70.3789C210.156 73.2012 213.49 74.6123 217.447 74.6123C221.431 74.6123 224.779 73.2427 227.491 70.5034C230.202 67.7642 231.558 64.1672 231.558 59.7124C231.558 55.2576 230.202 51.6745 227.491 48.9629C224.807 46.2236 221.459 44.854 217.447 44.854C213.49 44.854 210.156 46.2651 207.444 49.0874ZM273.228 74.8613C276.106 74.8613 278.748 74.2664 281.155 73.0767C283.59 71.8869 285.624 70.2682 287.256 68.2207L294.063 73.9897C291.573 76.8674 288.529 79.1224 284.932 80.7549C281.335 82.3874 277.434 83.2036 273.228 83.2036C266.449 83.2036 260.846 80.9624 256.419 76.48C251.992 71.9699 249.778 66.2977 249.778 59.4634C249.778 55.147 250.747 51.2179 252.684 47.6763C254.648 44.1346 257.387 41.34 260.901 39.2925C264.415 37.2173 268.358 36.1797 272.73 36.1797C277.102 36.1797 281.045 37.2173 284.559 39.2925C288.1 41.34 290.853 44.1346 292.818 47.6763C294.782 51.2179 295.765 55.147 295.765 59.4634H295.682C295.682 60.8745 295.599 62.2165 295.433 63.4893H259.034C259.725 66.9202 261.316 69.6733 263.807 71.7485C266.297 73.8237 269.437 74.8613 273.228 74.8613ZM272.73 44.605C269.133 44.605 266.145 45.6011 263.765 47.5933C261.413 49.5578 259.864 52.1864 259.117 55.479H286.509C285.762 52.1864 284.185 49.5578 281.778 47.5933C279.371 45.6011 276.355 44.605 272.73 44.605ZM329.258 36.3457C330.171 36.3457 330.849 36.3734 331.292 36.4287V46.6387C329.909 46.3066 328.497 46.1406 327.059 46.1406C323.157 46.1406 320.058 47.2474 317.762 49.4609C315.465 51.6745 314.317 55.0916 314.317 59.7124V82H305.228V37.6323H313.86V42.9033C315.853 40.8281 318.177 39.2233 320.833 38.0889C323.489 36.9268 326.298 36.3457 329.258 36.3457ZM364.952 36.1797C371.316 36.1797 376.6 38.3932 380.806 42.8203C385.04 47.2474 387.156 52.8781 387.156 59.7124C387.156 66.5467 385.04 72.1774 380.806 76.6045C376.6 81.0039 371.316 83.2036 364.952 83.2036C358.892 83.2036 353.842 80.9624 349.803 76.48V81.917H341.17V19.6196H350.259V42.4883C354.382 38.2826 359.279 36.1797 364.952 36.1797ZM363.914 74.6123C367.871 74.6123 371.191 73.2012 373.875 70.3789C376.587 67.5566 377.942 64.0011 377.942 59.7124C377.942 55.4237 376.587 51.882 373.875 49.0874C371.191 46.2651 367.871 44.854 363.914 44.854C359.93 44.854 356.596 46.2236 353.912 48.9629C351.228 51.6745 349.886 55.2576 349.886 59.7124C349.886 64.1672 351.228 67.7642 353.912 70.5034C356.596 73.2427 359.93 74.6123 363.914 74.6123ZM420.65 36.3457C421.563 36.3457 422.241 36.3734 422.684 36.4287V46.6387C421.3 46.3066 419.889 46.1406 418.45 46.1406C414.549 46.1406 411.45 47.2474 409.153 49.4609C406.857 51.6745 405.708 55.0916 405.708 59.7124V82H396.619V37.6323H405.252V42.9033C407.244 40.8281 409.568 39.2233 412.225 38.0889C414.881 36.9268 417.689 36.3457 420.65 36.3457ZM441.194 28.8335C440.088 29.9403 438.732 30.4937 437.127 30.4937C435.522 30.4937 434.153 29.9403 433.018 28.8335C431.911 27.6991 431.358 26.3294 431.358 24.7246C431.358 23.0921 431.911 21.7225 433.018 20.6157C434.153 19.4813 435.522 18.9141 437.127 18.9141C438.732 18.9141 440.088 19.4813 441.194 20.6157C442.329 21.7225 442.896 23.0921 442.896 24.7246C442.896 26.3294 442.329 27.6991 441.194 28.8335ZM441.734 82H432.562V37.6323H441.734V82ZM479.461 59.6294L496.976 82H486.185L474.107 66.519L462.029 82H451.238L468.67 59.6294L451.487 37.6323H462.361L474.107 52.6567L485.811 37.6323H496.602L479.461 59.6294Z"/>
</mask>
<path d="M126.346 67.1416L134.273 71.79C132.281 75.3317 129.486 78.1263 125.889 80.1738C122.32 82.1937 118.252 83.2036 113.687 83.2036C106.742 83.2036 101.084 80.9901 96.7119 76.563C92.3402 72.1082 90.1543 66.4914 90.1543 59.7124C90.1543 52.8781 92.3402 47.2474 96.7119 42.8203C101.084 38.3932 106.742 36.1797 113.687 36.1797C118.252 36.1797 122.32 37.2035 125.889 39.251C129.486 41.2708 132.281 44.0516 134.273 47.5933L126.346 52.2417C125.156 49.9728 123.454 48.1605 121.241 46.8047C119.055 45.4489 116.537 44.771 113.687 44.771C109.371 44.771 105.884 46.2236 103.228 49.1289C100.572 52.0065 99.2437 55.5343 99.2437 59.7124C99.2437 63.8905 100.572 67.4183 103.228 70.2959C105.884 73.1735 109.371 74.6123 113.687 74.6123C116.537 74.6123 119.055 73.9344 121.241 72.5786C123.454 71.2228 125.156 69.4105 126.346 67.1416ZM151.539 39.3755C155.163 37.245 159.175 36.1797 163.575 36.1797C167.974 36.1797 171.986 37.245 175.611 39.3755C179.236 41.4784 182.072 44.3283 184.119 47.9253C186.167 51.5223 187.19 55.4513 187.19 59.7124C187.19 63.9735 186.167 67.9025 184.119 71.4995C182.072 75.0688 179.236 77.9188 175.611 80.0493C171.986 82.1522 167.974 83.2036 163.575 83.2036C159.175 83.2036 155.163 82.1522 151.539 80.0493C147.942 77.9188 145.119 75.0688 143.072 71.4995C141.052 67.9025 140.042 63.9735 140.042 59.7124C140.042 55.4513 141.052 51.5223 143.072 47.9253C145.119 44.3283 147.942 41.4784 151.539 39.3755ZM156.104 72.4956C158.345 73.9067 160.835 74.6123 163.575 74.6123C166.314 74.6123 168.804 73.9067 171.045 72.4956C173.287 71.0845 175.002 69.2445 176.192 66.9756C177.409 64.7067 178.018 62.2856 178.018 59.7124C178.018 57.1392 177.409 54.7181 176.192 52.4492C175.002 50.1803 173.287 48.3403 171.045 46.9292C168.804 45.4904 166.314 44.771 163.575 44.771C160.835 44.771 158.345 45.4904 156.104 46.9292C153.863 48.3403 152.133 50.1803 150.916 52.4492C149.726 54.7181 149.131 57.1392 149.131 59.7124C149.131 62.2856 149.726 64.7067 150.916 66.9756C152.133 69.2445 153.863 71.0845 156.104 72.4956ZM200.596 76.6045C196.418 72.2051 194.329 66.5744 194.329 59.7124C194.329 52.8504 196.418 47.2197 200.596 42.8203C204.774 38.3932 210.045 36.1797 216.409 36.1797C222.109 36.1797 227.02 38.2826 231.143 42.4883V19.6196H240.315V81.917H231.558V76.48C227.518 80.9624 222.469 83.2036 216.409 83.2036C210.045 83.2036 204.774 81.0039 200.596 76.6045ZM207.444 49.0874C204.76 51.882 203.418 55.4237 203.418 59.7124C203.418 64.0011 204.76 67.5566 207.444 70.3789C210.156 73.2012 213.49 74.6123 217.447 74.6123C221.431 74.6123 224.779 73.2427 227.491 70.5034C230.202 67.7642 231.558 64.1672 231.558 59.7124C231.558 55.2576 230.202 51.6745 227.491 48.9629C224.807 46.2236 221.459 44.854 217.447 44.854C213.49 44.854 210.156 46.2651 207.444 49.0874ZM273.228 74.8613C276.106 74.8613 278.748 74.2664 281.155 73.0767C283.59 71.8869 285.624 70.2682 287.256 68.2207L294.063 73.9897C291.573 76.8674 288.529 79.1224 284.932 80.7549C281.335 82.3874 277.434 83.2036 273.228 83.2036C266.449 83.2036 260.846 80.9624 256.419 76.48C251.992 71.9699 249.778 66.2977 249.778 59.4634C249.778 55.147 250.747 51.2179 252.684 47.6763C254.648 44.1346 257.387 41.34 260.901 39.2925C264.415 37.2173 268.358 36.1797 272.73 36.1797C277.102 36.1797 281.045 37.2173 284.559 39.2925C288.1 41.34 290.853 44.1346 292.818 47.6763C294.782 51.2179 295.765 55.147 295.765 59.4634H295.682C295.682 60.8745 295.599 62.2165 295.433 63.4893H259.034C259.725 66.9202 261.316 69.6733 263.807 71.7485C266.297 73.8237 269.437 74.8613 273.228 74.8613ZM272.73 44.605C269.133 44.605 266.145 45.6011 263.765 47.5933C261.413 49.5578 259.864 52.1864 259.117 55.479H286.509C285.762 52.1864 284.185 49.5578 281.778 47.5933C279.371 45.6011 276.355 44.605 272.73 44.605ZM329.258 36.3457C330.171 36.3457 330.849 36.3734 331.292 36.4287V46.6387C329.909 46.3066 328.497 46.1406 327.059 46.1406C323.157 46.1406 320.058 47.2474 317.762 49.4609C315.465 51.6745 314.317 55.0916 314.317 59.7124V82H305.228V37.6323H313.86V42.9033C315.853 40.8281 318.177 39.2233 320.833 38.0889C323.489 36.9268 326.298 36.3457 329.258 36.3457ZM364.952 36.1797C371.316 36.1797 376.6 38.3932 380.806 42.8203C385.04 47.2474 387.156 52.8781 387.156 59.7124C387.156 66.5467 385.04 72.1774 380.806 76.6045C376.6 81.0039 371.316 83.2036 364.952 83.2036C358.892 83.2036 353.842 80.9624 349.803 76.48V81.917H341.17V19.6196H350.259V42.4883C354.382 38.2826 359.279 36.1797 364.952 36.1797ZM363.914 74.6123C367.871 74.6123 371.191 73.2012 373.875 70.3789C376.587 67.5566 377.942 64.0011 377.942 59.7124C377.942 55.4237 376.587 51.882 373.875 49.0874C371.191 46.2651 367.871 44.854 363.914 44.854C359.93 44.854 356.596 46.2236 353.912 48.9629C351.228 51.6745 349.886 55.2576 349.886 59.7124C349.886 64.1672 351.228 67.7642 353.912 70.5034C356.596 73.2427 359.93 74.6123 363.914 74.6123ZM420.65 36.3457C421.563 36.3457 422.241 36.3734 422.684 36.4287V46.6387C421.3 46.3066 419.889 46.1406 418.45 46.1406C414.549 46.1406 411.45 47.2474 409.153 49.4609C406.857 51.6745 405.708 55.0916 405.708 59.7124V82H396.619V37.6323H405.252V42.9033C407.244 40.8281 409.568 39.2233 412.225 38.0889C414.881 36.9268 417.689 36.3457 420.65 36.3457ZM441.194 28.8335C440.088 29.9403 438.732 30.4937 437.127 30.4937C435.522 30.4937 434.153 29.9403 433.018 28.8335C431.911 27.6991 431.358 26.3294 431.358 24.7246C431.358 23.0921 431.911 21.7225 433.018 20.6157C434.153 19.4813 435.522 18.9141 437.127 18.9141C438.732 18.9141 440.088 19.4813 441.194 20.6157C442.329 21.7225 442.896 23.0921 442.896 24.7246C442.896 26.3294 442.329 27.6991 441.194 28.8335ZM441.734 82H432.562V37.6323H441.734V82ZM479.461 59.6294L496.976 82H486.185L474.107 66.519L462.029 82H451.238L468.67 59.6294L451.487 37.6323H462.361L474.107 52.6567L485.811 37.6323H496.602L479.461 59.6294Z" fill="white"/>
<path d="M126.346 67.1416L126.852 66.279L125.947 65.7486L125.46 66.6772L126.346 67.1416ZM134.273 71.79L135.145 72.2803L135.626 71.4242L134.779 70.9274L134.273 71.79ZM125.889 80.1738L126.382 81.0441L126.384 81.0429L125.889 80.1738ZM96.7119 76.563L95.9982 77.2634L96.0004 77.2656L96.7119 76.563ZM96.7119 42.8203L97.4235 43.523L96.7119 42.8203ZM125.889 39.251L125.392 40.1184L125.4 40.1229L125.889 39.251ZM134.273 47.5933L134.779 48.4559L135.626 47.9591L135.145 47.103L134.273 47.5933ZM126.346 52.2417L125.46 52.7061L125.947 53.6347L126.852 53.1043L126.346 52.2417ZM121.241 46.8047L120.714 47.6545L120.718 47.6574L121.241 46.8047ZM103.228 49.1289L103.963 49.8072L103.966 49.8037L103.228 49.1289ZM121.241 72.5786L120.718 71.7258L120.714 71.7288L121.241 72.5786ZM125.84 68.0042L133.767 72.6527L134.779 70.9274L126.852 66.279L125.84 68.0042ZM133.401 71.2998C131.5 74.6803 128.837 77.3452 125.394 79.3048L126.384 81.0429C130.135 78.9074 133.062 75.9831 135.145 72.2803L133.401 71.2998ZM125.397 79.3035C121.994 81.229 118.1 82.2036 113.687 82.2036V84.2036C118.405 84.2036 122.646 83.1583 126.382 81.0441L125.397 79.3035ZM113.687 82.2036C106.975 82.2036 101.585 80.0742 97.4235 75.8603L96.0004 77.2656C100.583 81.9059 106.509 84.2036 113.687 84.2036V82.2036ZM97.4256 75.8626C93.254 71.6118 91.1543 66.2542 91.1543 59.7124H89.1543C89.1543 66.7285 91.4263 72.6047 95.9982 77.2634L97.4256 75.8626ZM91.1543 59.7124C91.1543 53.1127 93.2556 47.7436 97.4235 43.523L96.0004 42.1177C91.4248 46.7512 89.1543 52.6435 89.1543 59.7124H91.1543ZM97.4235 43.523C101.585 39.3091 106.975 37.1797 113.687 37.1797V35.1797C106.509 35.1797 100.583 37.4774 96.0004 42.1177L97.4235 43.523ZM113.687 37.1797C118.097 37.1797 121.99 38.167 125.392 40.1184L126.387 38.3836C122.65 36.2399 118.407 35.1797 113.687 35.1797V37.1797ZM125.4 40.1229C128.839 42.0544 131.501 44.7042 133.401 48.0835L135.145 47.103C133.061 43.3989 130.133 40.4873 126.379 38.379L125.4 40.1229ZM133.767 46.7306L125.84 51.3791L126.852 53.1043L134.779 48.4559L133.767 46.7306ZM127.231 51.7773C125.957 49.3463 124.128 47.4007 121.763 45.9519L120.718 47.6574C122.78 48.9203 124.355 50.5993 125.46 52.7061L127.231 51.7773ZM121.768 45.9549C119.407 44.4905 116.702 43.771 113.687 43.771V45.771C116.371 45.771 118.703 46.4073 120.714 47.6545L121.768 45.9549ZM113.687 43.771C109.12 43.771 105.355 45.3204 102.49 48.4541L103.966 49.8037C106.413 47.1269 109.621 45.771 113.687 45.771V43.771ZM102.493 48.4506C99.6544 51.526 98.2437 55.3014 98.2437 59.7124H100.244C100.244 55.7673 101.489 52.487 103.963 49.8072L102.493 48.4506ZM98.2437 59.7124C98.2437 64.1234 99.6544 67.8988 102.493 70.9742L103.963 69.6176C101.489 66.9378 100.244 63.6575 100.244 59.7124H98.2437ZM102.493 70.9742C105.359 74.0791 109.123 75.6123 113.687 75.6123V73.6123C109.618 73.6123 106.409 72.2679 103.963 69.6176L102.493 70.9742ZM113.687 75.6123C116.702 75.6123 119.407 74.8928 121.768 73.4284L120.714 71.7288C118.703 72.976 116.371 73.6123 113.687 73.6123V75.6123ZM121.763 73.4314C124.128 71.9826 125.957 70.037 127.231 67.606L125.46 66.6772C124.355 68.784 122.78 70.463 120.718 71.7259L121.763 73.4314ZM151.539 39.3755L152.043 40.2388L152.045 40.2376L151.539 39.3755ZM175.611 39.3755L175.104 40.2376L175.109 40.2405L175.611 39.3755ZM184.119 71.4995L184.987 71.9971L184.988 71.9942L184.119 71.4995ZM175.611 80.0493L176.113 80.9143L176.118 80.9114L175.611 80.0493ZM151.539 80.0493L151.029 80.9098L151.037 80.9143L151.539 80.0493ZM143.072 71.4995L142.2 71.9892L142.204 71.9971L143.072 71.4995ZM143.072 47.9253L142.203 47.4306L142.2 47.4357L143.072 47.9253ZM176.192 66.9756L175.311 66.5027L175.306 66.5112L176.192 66.9756ZM176.192 52.4492L175.306 52.9137L175.311 52.922L176.192 52.4492ZM171.045 46.9292L170.505 47.7707L170.513 47.7754L171.045 46.9292ZM156.104 46.9292L156.637 47.7755L156.644 47.7707L156.104 46.9292ZM150.916 52.4492L150.035 51.9764L150.03 51.9848L150.916 52.4492ZM150.916 66.9756L150.03 67.44L150.035 67.4484L150.916 66.9756ZM152.045 40.2376C155.509 38.2016 159.345 37.1797 163.575 37.1797V35.1797C159.006 35.1797 154.817 36.2883 151.032 38.5134L152.045 40.2376ZM163.575 37.1797C167.805 37.1797 171.64 38.2016 175.104 40.2376L176.118 38.5134C172.332 36.2883 168.144 35.1797 163.575 35.1797V37.1797ZM175.109 40.2405C178.583 42.2557 181.291 44.9787 183.25 48.42L184.988 47.4306C182.852 43.6779 179.888 40.701 176.113 38.5105L175.109 40.2405ZM183.25 48.42C185.209 51.8617 186.19 55.6195 186.19 59.7124H188.19C188.19 55.2832 187.124 51.1829 184.988 47.4306L183.25 48.42ZM186.19 59.7124C186.19 63.8054 185.209 67.5631 183.25 71.0048L184.988 71.9942C187.124 68.2419 188.19 64.1416 188.19 59.7124H186.19ZM183.252 71.0019C181.293 74.4171 178.582 77.1428 175.104 79.1872L176.118 80.9114C179.889 78.6948 182.851 75.7206 184.987 71.9971L183.252 71.0019ZM175.109 79.1843C171.645 81.1943 167.807 82.2036 163.575 82.2036V84.2036C168.141 84.2036 172.328 83.1101 176.113 80.9143L175.109 79.1843ZM163.575 82.2036C159.342 82.2036 155.505 81.1943 152.04 79.1843L151.037 80.9143C154.822 83.1101 159.008 84.2036 163.575 84.2036V82.2036ZM152.048 79.1889C148.597 77.1449 145.899 74.419 143.939 71.0019L142.204 71.9971C144.339 75.7187 147.286 78.6926 151.029 80.9097L152.048 79.1889ZM143.944 71.0099C142.011 67.5675 141.042 63.8079 141.042 59.7124H139.042C139.042 64.1391 140.093 68.2376 142.2 71.9891L143.944 71.0099ZM141.042 59.7124C141.042 55.6169 142.011 51.8573 143.944 48.4149L142.2 47.4357C140.093 51.1872 139.042 55.2857 139.042 59.7124H141.042ZM143.941 48.42C145.901 44.9768 148.597 42.2536 152.043 40.2388L151.034 38.5122C147.286 40.7031 144.338 43.6798 142.203 47.4306L143.941 48.42ZM155.571 73.3418C157.978 74.857 160.654 75.6123 163.575 75.6123V73.6123C161.017 73.6123 158.713 72.9565 156.637 71.6494L155.571 73.3418ZM163.575 75.6123C166.496 75.6123 169.172 74.857 171.578 73.3418L170.513 71.6494C168.437 72.9565 166.132 73.6123 163.575 73.6123V75.6123ZM171.578 73.3418C173.963 71.8401 175.803 69.8705 177.078 67.44L175.306 66.5112C174.201 68.6185 172.61 70.3289 170.513 71.6494L171.578 73.3418ZM177.073 67.4484C178.368 65.0342 179.018 62.4508 179.018 59.7124H177.018C177.018 62.1205 176.45 64.3792 175.311 66.5028L177.073 67.4484ZM179.018 59.7124C179.018 56.9741 178.368 54.3906 177.073 51.9764L175.311 52.922C176.45 55.0456 177.018 57.3043 177.018 59.7124H179.018ZM177.078 51.9848C175.803 49.5544 173.963 47.5847 171.578 46.083L170.513 47.7754C172.61 49.0959 174.201 50.8063 175.306 52.9136L177.078 51.9848ZM171.586 46.0877C169.178 44.5423 166.5 43.771 163.575 43.771V45.771C166.128 45.771 168.43 46.4385 170.505 47.7707L171.586 46.0877ZM163.575 43.771C160.65 43.771 157.971 44.5423 155.564 46.0877L156.644 47.7707C158.719 46.4385 161.021 45.771 163.575 45.771V43.771ZM155.571 46.083C153.188 47.5836 151.337 49.5505 150.035 51.9764L151.797 52.922C152.93 50.8102 154.538 49.0971 156.637 47.7754L155.571 46.083ZM150.03 51.9848C148.765 54.3976 148.131 56.9781 148.131 59.7124H150.131C150.131 57.3002 150.687 55.0386 151.802 52.9136L150.03 51.9848ZM148.131 59.7124C148.131 62.4467 148.765 65.0272 150.03 67.44L151.802 66.5112C150.687 64.3862 150.131 62.1246 150.131 59.7124H148.131ZM150.035 67.4484C151.337 69.8743 153.188 71.8412 155.571 73.3418L156.637 71.6494C154.538 70.3277 152.93 68.6146 151.797 66.5028L150.035 67.4484ZM200.596 42.8203L201.321 43.5089L201.323 43.5067L200.596 42.8203ZM231.143 42.4883L230.429 43.1883L232.143 44.9369V42.4883H231.143ZM231.143 19.6196V18.6196H230.143V19.6196H231.143ZM240.315 19.6196H241.315V18.6196H240.315V19.6196ZM240.315 81.917V82.917H241.315V81.917H240.315ZM231.558 81.917H230.558V82.917H231.558V81.917ZM231.558 76.48H232.558V73.8767L230.815 75.8105L231.558 76.48ZM207.444 49.0874L206.723 48.3946L206.723 48.3947L207.444 49.0874ZM207.444 70.3789L206.72 71.068L206.723 71.0717L207.444 70.3789ZM227.491 48.9629L226.776 49.6628L226.784 49.67L227.491 48.9629ZM201.321 75.9159C197.343 71.727 195.329 66.3544 195.329 59.7124H193.329C193.329 66.7944 195.493 72.6831 199.871 77.2931L201.321 75.9159ZM195.329 59.7124C195.329 53.0704 197.343 47.6978 201.321 43.5089L199.871 42.1317C195.493 46.7417 193.329 52.6304 193.329 59.7124H195.329ZM201.323 43.5067C205.303 39.2898 210.306 37.1797 216.409 37.1797V35.1797C209.784 35.1797 204.245 37.4967 199.869 42.134L201.323 43.5067ZM216.409 37.1797C221.831 37.1797 226.487 39.1673 230.429 43.1883L231.857 41.7883C227.553 37.3978 222.388 35.1797 216.409 35.1797V37.1797ZM232.143 42.4883V19.6196H230.143V42.4883H232.143ZM231.143 20.6196H240.315V18.6196H231.143V20.6196ZM239.315 19.6196V81.917H241.315V19.6196H239.315ZM240.315 80.917H231.558V82.917H240.315V80.917ZM232.558 81.917V76.48H230.558V81.917H232.558ZM230.815 75.8105C226.966 80.0815 222.187 82.2036 216.409 82.2036V84.2036C222.751 84.2036 228.071 81.8433 232.301 77.1495L230.815 75.8105ZM216.409 82.2036C210.304 82.2036 205.3 80.1058 201.321 75.9159L199.871 77.2931C204.248 81.902 209.786 84.2036 216.409 84.2036V82.2036ZM206.723 48.3947C203.841 51.3962 202.418 55.1955 202.418 59.7124H204.418C204.418 55.6518 205.68 52.3678 208.166 49.7801L206.723 48.3947ZM202.418 59.7124C202.418 64.2294 203.84 68.0403 206.72 71.068L208.169 69.6898C205.68 67.0729 204.418 63.7729 204.418 59.7124H202.418ZM206.723 71.0717C209.626 74.0927 213.221 75.6123 217.447 75.6123V73.6123C213.759 73.6123 210.686 72.3097 208.165 69.6861L206.723 71.0717ZM217.447 75.6123C221.688 75.6123 225.295 74.143 228.201 71.2069L226.78 69.7999C224.263 72.3424 221.174 73.6123 217.447 73.6123V75.6123ZM228.201 71.2069C231.127 68.2511 232.558 64.3862 232.558 59.7124H230.558C230.558 63.9481 229.277 67.2772 226.78 69.7999L228.201 71.2069ZM232.558 59.7124C232.558 55.0388 231.127 51.1853 228.198 48.2558L226.784 49.67C229.277 52.1636 230.558 55.4765 230.558 59.7124H232.558ZM228.205 48.263C225.324 45.3221 221.714 43.854 217.447 43.854V45.854C221.204 45.854 224.29 47.1251 226.776 49.6627L228.205 48.263ZM217.447 43.854C213.221 43.854 209.626 45.3736 206.723 48.3946L208.165 49.7802C210.686 47.1566 213.759 45.854 217.447 45.854V43.854ZM281.155 73.0767L280.716 72.1782L280.712 72.1802L281.155 73.0767ZM287.256 68.2207L287.903 67.4578L287.117 66.7916L286.474 67.5973L287.256 68.2207ZM294.063 73.9897L294.819 74.6441L295.48 73.8801L294.71 73.2269L294.063 73.9897ZM256.419 76.48L255.705 77.1805L255.707 77.1827L256.419 76.48ZM252.684 47.6763L251.809 47.1912L251.806 47.1965L252.684 47.6763ZM260.901 39.2925L261.405 40.1565L261.41 40.1535L260.901 39.2925ZM284.559 39.2925L284.05 40.1536L284.058 40.1582L284.559 39.2925ZM292.818 47.6763L291.943 48.1613L292.818 47.6763ZM295.765 59.4634V60.4634H296.765V59.4634H295.765ZM295.682 59.4634V58.4634H294.682V59.4634H295.682ZM295.433 63.4893V64.4893H296.311L296.424 63.6186L295.433 63.4893ZM259.034 63.4893V62.4893H257.812L258.053 63.6869L259.034 63.4893ZM263.765 47.5933L264.406 48.3607L264.407 48.36L263.765 47.5933ZM259.117 55.479L258.141 55.2577L257.864 56.479H259.117V55.479ZM286.509 55.479V56.479H287.762L287.484 55.2577L286.509 55.479ZM281.778 47.5933L281.14 48.3637L281.146 48.368L281.778 47.5933ZM273.228 75.8613C276.248 75.8613 279.044 75.2358 281.598 73.9731L280.712 72.1802C278.452 73.297 275.963 73.8613 273.228 73.8613V75.8613ZM281.594 73.9751C284.158 72.7226 286.31 71.0117 288.038 68.8441L286.474 67.5973C284.938 69.5247 283.023 71.0512 280.716 72.1782L281.594 73.9751ZM286.61 68.9836L293.416 74.7526L294.71 73.2269L287.903 67.4578L286.61 68.9836ZM293.307 73.3354C290.915 76.0996 287.99 78.2691 284.519 79.8443L285.345 81.6655C289.069 79.9757 292.231 77.6351 294.819 74.6441L293.307 73.3354ZM284.519 79.8443C281.06 81.4141 277.301 82.2036 273.228 82.2036V84.2036C277.567 84.2036 281.61 83.3607 285.345 81.6655L284.519 79.8443ZM273.228 82.2036C266.694 82.2036 261.354 80.054 257.13 75.7773L255.707 77.1827C260.338 81.8708 266.204 84.2036 273.228 84.2036V82.2036ZM257.133 75.7795C252.905 71.4725 250.778 66.0592 250.778 59.4634H248.778C248.778 66.5362 251.079 72.4673 255.705 77.1805L257.133 75.7795ZM250.778 59.4634C250.778 55.3027 251.71 51.5405 253.561 48.1561L251.806 47.1965C249.783 50.8954 248.778 54.9913 248.778 59.4634H250.778ZM253.558 48.1613C255.435 44.7778 258.046 42.1138 261.405 40.1565L260.398 38.4285C256.729 40.5662 253.861 43.4914 251.809 47.1912L253.558 48.1613ZM261.41 40.1535C264.759 38.1758 268.524 37.1797 272.73 37.1797V35.1797C268.193 35.1797 264.072 36.2588 260.393 38.4314L261.41 40.1535ZM272.73 37.1797C276.936 37.1797 280.701 38.1758 284.05 40.1535L285.067 38.4314C281.388 36.2588 277.267 35.1797 272.73 35.1797V37.1797ZM284.058 40.1582C287.445 42.116 290.068 44.7798 291.943 48.1613L293.692 47.1912C291.639 43.4894 288.756 40.564 285.059 38.4267L284.058 40.1582ZM291.943 48.1613C293.82 51.5448 294.765 55.3052 294.765 59.4634H296.765C296.765 54.9888 295.745 50.8911 293.692 47.1912L291.943 48.1613ZM295.765 58.4634H295.682V60.4634H295.765V58.4634ZM294.682 59.4634C294.682 60.8355 294.601 62.134 294.441 63.3599L296.424 63.6186C296.596 62.2989 296.682 60.9136 296.682 59.4634H294.682ZM295.433 62.4893H259.034V64.4893H295.433V62.4893ZM258.053 63.6869C258.786 67.3222 260.487 70.2837 263.166 72.5168L264.447 70.9803C262.146 69.063 260.665 66.5183 260.014 63.2916L258.053 63.6869ZM263.166 72.5168C265.866 74.7664 269.245 75.8613 273.228 75.8613V73.8613C269.63 73.8613 266.728 72.8811 264.447 70.9803L263.166 72.5168ZM272.73 43.605C268.938 43.605 265.711 44.6602 263.123 46.8265L264.407 48.36C266.579 46.542 269.328 45.605 272.73 45.605V43.605ZM263.124 46.8258C260.587 48.9452 258.932 51.7743 258.141 55.2577L260.092 55.7003C260.796 52.5984 262.24 50.1703 264.406 48.3607L263.124 46.8258ZM259.117 56.479H286.509V54.479H259.117V56.479ZM287.484 55.2577C286.693 51.7676 285.005 48.9366 282.41 46.8185L281.146 48.368C283.365 50.179 284.832 52.6051 285.534 55.7003L287.484 55.2577ZM282.415 46.8229C279.801 44.6591 276.548 43.605 272.73 43.605V45.605C276.161 45.605 278.94 46.5431 281.14 48.3637L282.415 46.8229ZM331.292 36.4287H332.292V35.5459L331.416 35.4364L331.292 36.4287ZM331.292 46.6387L331.059 47.6111L332.292 47.9071V46.6387H331.292ZM317.762 49.4609L318.456 50.1809L317.762 49.4609ZM314.317 82V83H315.317V82H314.317ZM305.228 82H304.228V83H305.228V82ZM305.228 37.6323V36.6323H304.228V37.6323H305.228ZM313.86 37.6323H314.86V36.6323H313.86V37.6323ZM313.86 42.9033H312.86V45.389L314.582 43.5959L313.86 42.9033ZM320.833 38.0889L321.226 39.0085L321.234 39.005L320.833 38.0889ZM329.258 37.3457C330.163 37.3457 330.79 37.3737 331.168 37.421L331.416 35.4364C330.909 35.373 330.179 35.3457 329.258 35.3457V37.3457ZM330.292 36.4287V46.6387H332.292V36.4287H330.292ZM331.525 45.6663C330.065 45.3157 328.575 45.1406 327.059 45.1406V47.1406C328.42 47.1406 329.752 47.2976 331.059 47.6111L331.525 45.6663ZM327.059 45.1406C322.959 45.1406 319.59 46.3094 317.068 48.7409L318.456 50.1809C320.526 48.1854 323.355 47.1406 327.059 47.1406V45.1406ZM317.068 48.7409C314.502 51.2139 313.317 54.9428 313.317 59.7124H315.317C315.317 55.2405 316.428 52.1351 318.456 50.1809L317.068 48.7409ZM313.317 59.7124V82H315.317V59.7124H313.317ZM314.317 81H305.228V83H314.317V81ZM306.228 82V37.6323H304.228V82H306.228ZM305.228 38.6323H313.86V36.6323H305.228V38.6323ZM312.86 37.6323V42.9033H314.86V37.6323H312.86ZM314.582 43.5959C316.48 41.6181 318.693 40.0903 321.226 39.0085L320.44 37.1692C317.661 38.3563 315.225 40.0382 313.139 42.2108L314.582 43.5959ZM321.234 39.005C323.761 37.8994 326.433 37.3457 329.258 37.3457V35.3457C326.163 35.3457 323.218 35.9541 320.432 37.1727L321.234 39.005ZM380.806 42.8203L380.081 43.5091L380.083 43.5114L380.806 42.8203ZM380.806 76.6045L380.083 75.9134L380.083 75.9135L380.806 76.6045ZM349.803 76.48L350.546 75.8105L348.803 73.8767V76.48H349.803ZM349.803 81.917V82.917H350.803V81.917H349.803ZM341.17 81.917H340.17V82.917H341.17V81.917ZM341.17 19.6196V18.6196H340.17V19.6196H341.17ZM350.259 19.6196H351.259V18.6196H350.259V19.6196ZM350.259 42.4883H349.259V44.9369L350.973 43.1883L350.259 42.4883ZM373.875 70.3789L373.154 69.6861L373.15 69.6898L373.875 70.3789ZM373.875 49.0874L373.15 49.7766L373.157 49.7838L373.875 49.0874ZM353.912 48.9629L354.622 49.6664L354.626 49.6627L353.912 48.9629ZM353.912 70.5034L354.626 69.8036L353.912 70.5034ZM364.952 37.1797C371.054 37.1797 376.073 39.2899 380.081 43.5091L381.531 42.1316C377.128 37.4965 371.577 35.1797 364.952 35.1797V37.1797ZM380.083 43.5114C384.118 47.7303 386.156 53.1032 386.156 59.7124H388.156C388.156 52.653 385.961 46.7645 381.529 42.1292L380.083 43.5114ZM386.156 59.7124C386.156 66.3216 384.118 71.6945 380.083 75.9134L381.529 77.2956C385.961 72.6603 388.156 66.7718 388.156 59.7124H386.156ZM380.083 75.9135C376.076 80.1057 371.057 82.2036 364.952 82.2036V84.2036C371.575 84.2036 377.125 81.9022 381.529 77.2955L380.083 75.9135ZM364.952 82.2036C359.174 82.2036 354.395 80.0815 350.546 75.8105L349.06 77.1495C353.29 81.8433 358.61 84.2036 364.952 84.2036V82.2036ZM348.803 76.48V81.917H350.803V76.48H348.803ZM349.803 80.917H341.17V82.917H349.803V80.917ZM342.17 81.917V19.6196H340.17V81.917H342.17ZM341.17 20.6196H350.259V18.6196H341.17V20.6196ZM349.259 19.6196V42.4883H351.259V19.6196H349.259ZM350.973 43.1883C354.916 39.1662 359.559 37.1797 364.952 37.1797V35.1797C358.999 35.1797 353.848 37.3989 349.545 41.7883L350.973 43.1883ZM363.914 75.6123C368.14 75.6123 371.724 74.0923 374.6 71.068L373.15 69.6898C370.659 72.31 367.602 73.6123 363.914 73.6123V75.6123ZM374.596 71.0717C377.505 68.0446 378.942 64.2324 378.942 59.7124H376.942C376.942 63.7699 375.669 67.0687 373.154 69.6861L374.596 71.0717ZM378.942 59.7124C378.942 55.1925 377.504 51.3919 374.593 48.391L373.157 49.7838C375.669 52.3721 376.942 55.6548 376.942 59.7124H378.942ZM374.6 48.3983C371.724 45.374 368.14 43.854 363.914 43.854V45.854C367.602 45.854 370.659 47.1563 373.15 49.7765L374.6 48.3983ZM363.914 43.854C359.673 43.854 356.077 45.3236 353.197 48.263L354.626 49.6627C357.114 47.1237 360.187 45.854 363.914 45.854V43.854ZM353.201 48.2594C350.301 51.1895 348.886 55.0418 348.886 59.7124H350.886C350.886 55.4735 352.155 52.1594 354.622 49.6664L353.201 48.2594ZM348.886 59.7124C348.886 64.3833 350.301 68.2469 353.197 71.2033L354.626 69.8036C352.155 67.2814 350.886 63.9511 350.886 59.7124H348.886ZM353.197 71.2033C356.077 74.1427 359.673 75.6123 363.914 75.6123V73.6123C360.187 73.6123 357.114 72.3426 354.626 69.8036L353.197 71.2033ZM422.684 36.4287H423.684V35.5459L422.808 35.4364L422.684 36.4287ZM422.684 46.6387L422.45 47.6111L423.684 47.9071V46.6387H422.684ZM409.153 49.4609L409.847 50.1809L409.153 49.4609ZM405.708 82V83H406.708V82H405.708ZM396.619 82H395.619V83H396.619V82ZM396.619 37.6323V36.6323H395.619V37.6323H396.619ZM405.252 37.6323H406.252V36.6323H405.252V37.6323ZM405.252 42.9033H404.252V45.389L405.973 43.5959L405.252 42.9033ZM412.225 38.0889L412.617 39.0085L412.625 39.005L412.225 38.0889ZM420.65 37.3457C421.555 37.3457 422.181 37.3737 422.56 37.421L422.808 35.4364C422.3 35.373 421.571 35.3457 420.65 35.3457V37.3457ZM421.684 36.4287V46.6387H423.684V36.4287H421.684ZM422.917 45.6663C421.456 45.3157 419.967 45.1406 418.45 45.1406V47.1406C419.811 47.1406 421.144 47.2976 422.45 47.6111L422.917 45.6663ZM418.45 45.1406C414.351 45.1406 410.982 46.3094 408.459 48.7409L409.847 50.1809C411.918 48.1854 414.747 47.1406 418.45 47.1406V45.1406ZM408.459 48.7409C405.894 51.2139 404.708 54.9428 404.708 59.7124H406.708C406.708 55.2405 407.82 52.1351 409.847 50.1809L408.459 48.7409ZM404.708 59.7124V82H406.708V59.7124H404.708ZM405.708 81H396.619V83H405.708V81ZM397.619 82V37.6323H395.619V82H397.619ZM396.619 38.6323H405.252V36.6323H396.619V38.6323ZM404.252 37.6323V42.9033H406.252V37.6323H404.252ZM405.973 43.5959C407.872 41.6181 410.084 40.0903 412.617 39.0085L411.832 37.1692C409.052 38.3563 406.616 40.0382 404.531 42.2108L405.973 43.5959ZM412.625 39.005C415.153 37.8994 417.824 37.3457 420.65 37.3457V35.3457C417.554 35.3457 414.609 35.9541 411.824 37.1727L412.625 39.005ZM441.194 28.8335L440.487 28.1264L441.194 28.8335ZM433.018 28.8335L432.302 29.5318L432.311 29.5407L432.32 29.5493L433.018 28.8335ZM433.018 20.6157L432.311 19.9086L433.018 20.6157ZM441.194 20.6157L440.479 21.314L440.487 21.3229L440.496 21.3315L441.194 20.6157ZM441.734 82V83H442.734V82H441.734ZM432.562 82H431.562V83H432.562V82ZM432.562 37.6323V36.6323H431.562V37.6323H432.562ZM441.734 37.6323H442.734V36.6323H441.734V37.6323ZM440.487 28.1264C439.573 29.0404 438.474 29.4937 437.127 29.4937V31.4937C438.989 31.4937 440.602 30.8402 441.901 29.5406L440.487 28.1264ZM437.127 29.4937C435.779 29.4937 434.661 29.0397 433.716 28.1177L432.32 29.5493C433.644 30.8408 435.265 31.4937 437.127 31.4937V29.4937ZM433.734 28.1352C432.812 27.1901 432.358 26.0722 432.358 24.7246H430.358C430.358 26.5867 431.011 28.208 432.302 29.5318L433.734 28.1352ZM432.358 24.7246C432.358 23.3446 432.815 22.2333 433.725 21.3228L432.311 19.9086C431.008 21.2117 430.358 22.8396 430.358 24.7246H432.358ZM433.725 21.3228C434.672 20.376 435.787 19.9141 437.127 19.9141V17.9141C435.257 17.9141 433.633 18.5866 432.311 19.9086L433.725 21.3228ZM437.127 19.9141C438.466 19.9141 439.563 20.3752 440.479 21.314L441.91 19.9174C440.612 18.5873 438.997 17.9141 437.127 17.9141V19.9141ZM440.496 21.3315C441.431 22.2438 441.896 23.3525 441.896 24.7246H443.896C443.896 22.8317 443.226 21.2012 441.893 19.8999L440.496 21.3315ZM441.896 24.7246C441.896 26.0643 441.434 27.1795 440.487 28.1264L441.901 29.5406C443.223 28.2186 443.896 26.5946 443.896 24.7246H441.896ZM441.734 81H432.562V83H441.734V81ZM433.562 82V37.6323H431.562V82H433.562ZM432.562 38.6323H441.734V36.6323H432.562V38.6323ZM440.734 37.6323V82H442.734V37.6323H440.734ZM479.461 59.6294L478.672 59.0147L478.192 59.6308L478.674 60.2459L479.461 59.6294ZM496.976 82V83H499.029L497.763 81.3835L496.976 82ZM486.185 82L485.396 82.6151L485.696 83H486.185V82ZM474.107 66.519L474.895 65.9039L474.107 64.8933L473.318 65.9039L474.107 66.519ZM462.029 82V83H462.517L462.818 82.6151L462.029 82ZM451.238 82L450.449 81.3854L449.191 83H451.238V82ZM468.67 59.6294L469.459 60.244L469.938 59.6286L469.458 59.0138L468.67 59.6294ZM451.487 37.6323V36.6323H449.437L450.699 38.2479L451.487 37.6323ZM462.361 37.6323L463.149 37.0164L462.849 36.6323H462.361V37.6323ZM474.107 52.6567L473.319 53.2726L474.108 54.2822L474.896 53.2713L474.107 52.6567ZM485.811 37.6323V36.6323H485.322L485.022 37.0178L485.811 37.6323ZM496.602 37.6323L497.391 38.247L498.649 36.6323H496.602V37.6323ZM478.674 60.2459L496.188 82.6165L497.763 81.3835L480.248 59.0129L478.674 60.2459ZM496.976 81H486.185V83H496.976V81ZM486.973 81.3849L474.895 65.9039L473.318 67.1342L485.396 82.6151L486.973 81.3849ZM473.318 65.9039L461.241 81.3849L462.818 82.6151L474.895 67.1342L473.318 65.9039ZM462.029 81H451.238V83H462.029V81ZM452.027 82.6146L469.459 60.244L467.881 59.0147L450.449 81.3854L452.027 82.6146ZM469.458 59.0138L452.275 37.0167L450.699 38.2479L467.882 60.245L469.458 59.0138ZM451.487 38.6323H462.361V36.6323H451.487V38.6323ZM461.574 38.2482L473.319 53.2726L474.895 52.0408L463.149 37.0164L461.574 38.2482ZM474.896 53.2713L486.6 38.2469L485.022 37.0178L473.318 52.0422L474.896 53.2713ZM485.811 38.6323H496.602V36.6323H485.811V38.6323ZM495.813 37.0177L478.672 59.0147L480.25 60.2441L497.391 38.247L495.813 37.0177Z" fill="white" mask="url(#path-11-outside-1_117_15)"/>
</svg>
