<svg xmlns="http://www.w3.org/2000/svg" width="1440" height="490" viewBox="0 0 1440 490" fill="none">
<g opacity="0.5" clip-path="url(#clip0_386_76)">
<path opacity="0.8" d="M1493.48 417.658L1481.06 423.055M1493.48 417.658H1456.65M1493.48 417.658L1506.33 412.083M1493.48 417.658H1519.57M1481.06 423.055L1485.58 423.053L1490.05 423.041L1494.44 423.008L1498.68 422.943L1502.74 422.838L1506.58 422.68L1510.14 422.461L1513.44 422.181L1516.28 421.794L1518.86 421.345L1519.57 421.188V417.658M1481.06 423.055H1444.81M1444.81 423.055H1408.57M1444.81 423.055L1456.65 417.658M1408.57 423.055H1372.33M1408.57 423.055L1419.82 417.658M1372.33 423.055H1336.09M1372.33 423.055L1382.99 417.658M1336.09 423.055H1299.85M1336.09 423.055L1346.15 417.658M1299.85 423.055H1263.61M1299.85 423.055L1309.32 417.658M1263.61 423.055H1227.37M1263.61 423.055L1272.49 417.658M1227.37 423.055H1191.13M1227.37 423.055L1235.66 417.658M1191.13 423.055H1154.89M1191.13 423.055L1198.82 417.658M1154.89 423.055H1118.65M1154.89 423.055L1161.99 417.658M1118.65 423.055H1082.41M1118.65 423.055L1125.16 417.658M1082.41 423.055H1046.17M1082.41 423.055L1088.33 417.658M1046.17 423.055H1009.93M1046.17 423.055L1047.48 421.721L1049.48 419.703L1051.49 417.658M1009.93 423.055H973.685M1009.93 423.055L1011.09 421.721L1014.66 417.658M973.685 423.055H937.445M973.685 423.055L977.828 417.658M937.445 423.055H901.203M937.445 423.055L938.762 421.051L940.097 419.024L940.545 418.342L940.996 417.658M901.203 423.055H864.963M901.203 423.055L902.302 421.051L902.672 420.379L903.042 419.703L904.163 417.658M864.963 423.055H828.722M864.963 423.055L867.331 417.658M828.722 423.055L828.941 422.39L829.16 421.721L830.272 418.342L830.498 417.658M828.722 423.055H792.482M792.482 423.055H756.24M792.482 423.055L793.665 417.658M756.24 423.055H720M756.24 423.055L756.46 421.051L756.833 417.658M720 423.055H683.759M720 423.055V417.658M683.759 423.055H647.518M683.759 423.055L683.54 421.051L683.167 417.658M647.518 423.055H611.278M647.518 423.055L646.335 417.658M611.278 423.055L611.059 422.39L610.84 421.721L609.728 418.342L609.502 417.658M611.278 423.055H575.037M575.037 423.055H538.796M575.037 423.055L572.97 418.342L572.669 417.658M538.796 423.055H502.555M538.796 423.055L537.698 421.051L537.328 420.379L536.585 419.024L536.212 418.342L535.837 417.658M502.555 423.055H466.315M502.555 423.055L501.238 421.051L499.903 419.024L499.455 418.342L499.004 417.658M466.315 423.055H430.074M466.315 423.055L462.172 417.658M430.074 423.055H393.833M430.074 423.055L428.905 421.721L425.34 417.658M393.833 423.055H357.593M393.833 423.055L388.507 417.658M357.593 423.055H321.352M357.593 423.055L351.674 417.658M321.352 423.055H285.111M321.352 423.055L314.842 417.658M285.111 423.055H248.87M285.111 423.055L278.009 417.658M248.87 423.055H212.63M248.87 423.055L241.176 417.658M212.63 423.055H176.389M212.63 423.055L204.344 417.658M176.389 423.055H140.148M176.389 423.055L167.511 417.658M140.148 423.055H103.908M140.148 423.055L130.678 417.658M103.908 423.055H67.6672M103.908 423.055L93.8456 417.658M67.6672 423.055H31.4258M67.6672 423.055L57.0129 417.658M31.4258 423.055H-4.81465M31.4258 423.055L20.1811 417.658M-4.81465 423.055H-41.0551M-4.81465 423.055L-16.6516 417.658M-41.0551 423.055L-45.5777 423.053L-50.0536 423.041L-54.4363 423.008L-58.6815 422.943L-62.7426 422.838L-66.5764 422.68L-70.137 422.461L-73.4419 422.181L-76.2778 421.794L-78.8598 421.345L-79.5694 421.188V417.658M-41.0551 423.055L-53.4843 417.658M20.1811 417.658H57.0129M20.1811 417.658H-16.6516M20.1811 417.658L8.56148 412.083M57.0129 417.658L46.0055 412.083M57.0129 417.658H93.8456M167.511 417.658H204.344M167.511 417.658H130.678M167.511 417.658L165.246 416.281L158.338 412.083M204.344 417.658L195.782 412.083M204.344 417.658H241.176M314.842 417.658H351.674M314.842 417.658H278.009M314.842 417.658L313.181 416.281L312.345 415.589L308.114 412.083M351.674 417.658L350.92 416.972L350.164 416.281L345.559 412.083M351.674 417.658H388.507M462.172 417.658L461.644 416.972L457.891 412.083M462.172 417.658H499.004M462.172 417.658H425.34M499.004 417.658L498.099 416.281L497.642 415.589L497.185 414.894L495.335 412.083M499.004 417.658H535.837M609.502 417.658H646.335M609.502 417.658H572.669M609.502 417.658L607.668 412.083M646.335 417.658L646.184 416.972L646.033 416.281L645.881 415.589L645.421 413.494L645.112 412.083M646.335 417.658H683.167M756.833 417.658H793.665M756.833 417.658H720M756.833 417.658L757.444 412.083M793.665 417.658L793.816 416.972L793.967 416.281L794.119 415.589L794.888 412.083M793.665 417.658H830.498M904.163 417.658H940.996M904.163 417.658H867.331M904.163 417.658L904.918 416.281L906.447 413.494L906.833 412.79L907.221 412.083M940.996 417.658L941.901 416.281L942.358 415.589L942.815 414.894L944.665 412.083M940.996 417.658H977.828M1051.49 417.658H1088.33M1051.49 417.658H1014.66M1051.49 417.658L1052.85 416.281L1053.54 415.589L1057 412.083M1088.33 417.658L1089.08 416.972L1089.84 416.281L1094.44 412.083M1088.33 417.658H1125.16M1198.82 417.658H1235.66M1198.82 417.658H1161.99M1198.82 417.658L1200.79 416.281L1201.77 415.589L1206.77 412.083M1235.66 417.658L1244.22 412.083M1235.66 417.658H1272.49M1346.15 417.658H1382.99M1346.15 417.658H1309.32M1346.15 417.658L1356.55 412.083M1382.99 417.658L1393.99 412.083M1382.99 417.658H1419.82M-79.6985 367.189H-79.5694M-42.626 367.189L-28.5635 374.312M-42.626 367.189L-57.2273 359.794M-42.626 367.189H-0.257941M-42.626 367.189H-79.5694M-28.5635 374.312H-70.1503M-28.5635 374.312L-15.01 381.177M-28.5635 374.312H13.0232M-70.1503 374.312L-55.8438 381.177M-70.1503 374.312H-79.5694M-70.1503 374.312L-79.5694 369.793M-28.7318 394.187H10.6753M-28.7318 394.187L-15.8737 400.358M-28.7318 394.187H-68.1381M-28.7318 394.187L-42.0471 387.798M10.6753 394.187L22.8571 400.358M10.6753 394.187L-1.93871 387.798M10.6753 394.187H50.0825M-15.8737 400.358H22.8571M-15.8737 400.358L-3.44956 406.319M-15.8737 400.358H-54.6037M22.8571 400.358H61.5871M22.8571 400.358L34.6266 406.319M-79.975 254.764H-79.5694M-45.7884 254.764L-27.6549 266.573M-45.7884 254.764L-64.8232 242.368M-45.7884 254.764H8.91129M-45.7884 254.764H-79.5694M-27.6549 266.573L-10.36 277.836M-27.6549 266.573H25.7489M-27.6549 266.573H-79.5694M-62.5286 277.836H-10.36M-62.5286 277.836L-44.8364 288.589M-62.5286 277.836H-79.5694M-62.5286 277.836L-79.5694 267.478M-27.9272 298.867H21.9343M-27.9272 298.867L-11.7492 308.7M-27.9272 298.867H-77.7887M-27.9272 298.867L-44.8364 288.589M21.9343 298.867L37.0345 308.7M21.9343 298.867L6.15194 288.589M21.9343 298.867H71.7966M-11.7492 308.7H37.0345M-11.7492 308.7H-60.5322M-11.7492 308.7L3.74406 318.117M37.0345 308.7L51.4942 318.117M37.0345 308.7H85.8174M32.8418 335.804H78.6521M32.8418 335.804L46.5219 344.119M32.8418 335.804H-12.9686M32.8418 335.804L18.5944 327.144M78.6521 335.804L91.4202 344.119M78.6521 335.804L65.3551 327.144M78.6521 335.804H124.463M46.5219 344.119H91.4202M46.5219 344.119H1.62355M46.5219 344.119L59.6681 352.109M91.4202 344.119L103.69 352.109M91.4202 344.119H136.319M84.4781 367.189H126.846M84.4781 367.189L96.1968 374.312M84.4781 367.189H42.1101M84.4781 367.189L72.3105 359.794M126.846 367.189L137.784 374.312M126.846 367.189L115.49 359.794M126.846 367.189H169.214M96.1968 374.312H137.784M96.1968 374.312H54.61M96.1968 374.312L107.492 381.177M137.784 374.312L148.325 381.177M137.784 374.312H179.37M128.896 394.187H168.303M128.896 394.187L139.047 400.358M128.896 394.187H89.4896M128.896 394.187L118.384 387.798M168.303 394.187L177.777 400.358M168.303 394.187L158.492 387.798M168.303 394.187H207.71M139.047 400.358H177.777M139.047 400.358L148.856 406.319M139.047 400.358H100.317M177.777 400.358H216.508M177.777 400.358L186.932 406.319M-51.5453 50.0315L-26.0241 73.3004M-51.5453 50.0315L-78.8756 25.1143M-51.5453 50.0315H25.609M-51.5453 50.0315H-79.5694M-26.0241 73.3004L-2.1361 95.079M-26.0241 73.3004H48.5783M-26.0241 73.3004H-79.5694M-26.5421 134.705H41.3255M-26.5421 134.705L-4.73303 152.781M-26.5421 134.705L-49.7046 115.506M-26.5421 134.705H-79.5694M41.3255 134.705L61.1515 152.781M41.3255 134.705L20.2685 115.506M41.3255 134.705H109.193M-4.73303 152.781H61.1515M-4.73303 152.781H-70.6175M-4.73303 152.781L15.8384 169.832M61.1515 152.781L79.8531 169.832M61.1515 152.781H127.037M53.6647 201.184H114.241M53.6647 201.184L71.0945 215.63M53.6647 201.184H-6.91103M53.6647 201.184L35.2738 185.94M114.241 201.184L130.086 215.63M114.241 201.184L97.5211 185.94M114.241 201.184H174.817M71.0945 215.63H130.086M71.0945 215.63H12.1029M71.0945 215.63L87.6347 229.34M130.086 215.63L145.123 229.34M130.086 215.63H189.077M118.309 254.764H173.009M118.309 254.764L132.557 266.573M118.309 254.764H63.6102M118.309 254.764L103.354 242.368M173.009 254.764L185.961 266.573M173.009 254.764L159.412 242.368M173.009 254.764H227.708M132.557 266.573H185.961M132.557 266.573H79.1535M132.557 266.573L146.146 277.836M185.961 266.573L198.314 277.836M185.961 266.573H239.365M171.52 298.867H221.382M171.52 298.867L183.384 308.7M171.52 298.867H121.658M171.52 298.867L159.12 288.589M221.382 298.867L232.168 308.7M221.382 298.867L210.109 288.589M221.382 298.867H271.243M183.384 308.7H232.168M183.384 308.7H134.601M183.384 308.7L194.745 318.117M232.168 308.7L242.496 318.117M232.168 308.7H280.951M216.084 335.804H261.894M216.084 335.804L226.116 344.119M216.084 335.804H170.274M216.084 335.804L205.636 327.144M261.894 335.804L263.055 336.861L271.014 344.119M261.894 335.804L252.397 327.144M261.894 335.804H307.705M226.116 344.119H271.014M226.116 344.119H181.218M226.116 344.119L235.757 352.109M271.014 344.119L279.779 352.109M271.014 344.119H315.913M253.95 367.189H296.319M253.95 367.189L262.545 374.312M253.95 367.189H211.582M253.95 367.189L245.027 359.794M296.319 367.189L304.131 374.312M296.319 367.189L293.313 364.448L288.207 359.794M296.319 367.189H338.687M262.545 374.312H304.131M262.545 374.312H220.958M262.545 374.312L270.827 381.177M304.131 374.312L311.661 381.177M304.131 374.312H345.718M286.523 394.187H325.931M286.523 394.187L293.968 400.358M286.523 394.187H247.117M286.523 394.187L278.815 387.798M325.931 394.187L331.029 398.834L331.865 399.598L332.699 400.358M325.931 394.187L318.923 387.798M325.931 394.187H365.338M293.968 400.358H332.699M293.968 400.358L301.161 406.319M293.968 400.358H255.238M332.699 400.358H371.429M332.699 400.358L339.237 406.319M-23.5912 -215.032H82.6366M-23.5912 -215.032L9.85745 -171.467M-23.5912 -215.032L-60.3464 -262.905M-23.5912 -215.032L-79.5694 -215.033M82.6366 -215.032L111.307 -171.467M82.6366 -215.032L51.1319 -262.905M82.6366 -215.032H188.864M9.85745 -171.467H111.307M9.85745 -171.467L40.4268 -131.652M9.85745 -171.467H-79.5694M111.307 -171.467L137.509 -131.652M111.307 -171.467H212.756M94.2953 -61.4897H183.682M94.2953 -61.4897L118.149 -30.4204M94.2953 -61.4897H4.90927M94.2953 -61.4897L68.4726 -95.1229M183.682 -61.4897L204.128 -30.4204M183.682 -61.4897L161.548 -95.1229M183.682 -61.4897H273.068M118.149 -30.4204H204.128M118.149 -30.4204H32.1704M118.149 -30.4204L140.251 -1.63371M204.128 -30.4204L223.073 -1.63371M204.128 -30.4204H290.106M179.918 50.0315H257.073M179.918 50.0315L197.784 73.3004M179.918 50.0315H102.763M179.918 50.0315L160.787 25.1143M257.073 50.0315L272.386 73.3004M257.073 50.0315L240.675 25.1143M257.073 50.0315H334.227M197.784 73.3004H272.386M197.784 73.3004H123.181M197.784 73.3004L214.505 95.079M272.386 73.3004L286.718 95.079M272.386 73.3004H346.988M244.928 134.705H312.795M244.928 134.705L258.807 152.781M244.928 134.705H177.061M244.928 134.705L230.188 115.506M312.795 134.705L324.691 152.781M312.795 134.705L300.161 115.506M312.795 134.705H380.663M258.807 152.781H324.691M258.807 152.781H192.921M258.807 152.781L271.897 169.832M324.691 152.781L335.912 169.832M324.691 152.781H390.576M295.968 201.184H356.545M295.968 201.184L307.06 215.63M295.968 201.184H235.393M295.968 201.184L284.265 185.94M356.545 201.184L366.051 215.63M356.545 201.184L346.513 185.94M356.545 201.184H417.121M307.06 215.63H366.051M307.06 215.63H248.068M307.06 215.63L317.586 229.34M366.051 215.63L375.073 229.34M366.051 215.63H425.043M337.106 254.764H391.805M337.106 254.764L346.173 266.573M337.106 254.764H282.407M337.106 254.764L327.589 242.368M391.805 254.764L399.577 266.573M391.805 254.764L383.647 242.368M391.805 254.764H446.504M346.173 266.573H399.577M346.173 266.573H292.768M346.173 266.573L354.82 277.836M399.577 266.573L406.989 277.836M399.577 266.573H452.98M370.967 298.867H420.829M370.967 298.867L378.517 308.7M370.967 298.867H321.106M370.967 298.867L363.076 288.589M420.829 298.867L427.3 308.7M420.829 298.867L414.066 288.589M420.829 298.867H470.691M378.517 308.7H427.3M378.517 308.7H329.733M378.517 308.7L385.748 318.117M427.3 308.7L433.498 318.117M427.3 308.7H476.084M399.326 335.804H445.137M399.326 335.804L405.71 344.119M399.326 335.804H353.516M399.326 335.804L392.677 327.144M445.137 335.804L444.437 334.741L439.438 327.144M445.137 335.804L450.608 344.119M445.137 335.804H490.948M405.71 344.119H450.608M405.71 344.119H360.812M405.71 344.119L411.845 352.109M450.608 344.119L455.867 352.109M450.608 344.119H495.508M423.423 367.189H465.791M423.423 367.189L428.892 374.312M423.423 367.189H381.055M423.423 367.189L417.745 359.794M465.791 367.189L470.479 374.312M465.791 367.189L463.988 364.448L462.771 362.599L460.925 359.794M465.791 367.189H508.159M428.892 374.312H470.479M428.892 374.312H387.305M428.892 374.312L434.162 381.177M470.479 374.312L472.193 376.916L473.322 378.632L474.997 381.177M470.479 374.312H512.065M444.152 394.187H483.558M444.152 394.187L447.72 398.834L448.889 400.358M444.152 394.187H404.745M444.152 394.187L439.868 388.609L439.246 387.798M483.558 394.187L486.617 398.834L487.119 399.598L487.619 400.358M483.558 394.187L481.474 391.021L479.354 387.798M483.558 394.187H522.965M448.889 400.358H487.619M448.889 400.358L453.466 406.319M448.889 400.358H410.159M487.619 400.358H526.349M487.619 400.358L491.542 406.319M401.318 -215.032H507.545M401.318 -215.032L415.653 -171.467M401.318 -215.032H295.091M401.318 -215.032L385.566 -262.905M507.545 -215.032L517.103 -171.467M507.545 -215.032L497.044 -262.905M507.545 -215.032H613.773M415.653 -171.467H517.103M415.653 -171.467H314.204M415.653 -171.467L428.754 -131.652M517.103 -171.467L525.836 -131.652M517.103 -171.467H618.551M451.841 -61.4897H541.227M451.841 -61.4897L462.064 -30.4204M451.841 -61.4897H362.454M451.841 -61.4897L440.774 -95.1229M541.227 -61.4897L548.043 -30.4204M541.227 -61.4897L533.849 -95.1229M541.227 -61.4897H630.614M462.064 -30.4204H548.043M462.064 -30.4204H376.085M462.064 -30.4204L471.536 -1.63371M548.043 -30.4204L554.358 -1.63371M548.043 -30.4204H634.021M488.536 50.0315H565.691M488.536 50.0315L496.193 73.3004M488.536 50.0315H411.382M488.536 50.0315L480.337 25.1143M565.691 50.0315L570.795 73.3004M565.691 50.0315L560.225 25.1143M565.691 50.0315H642.846M496.193 73.3004H570.795M496.193 73.3004H421.591M496.193 73.3004L503.359 95.079M570.795 73.3004L575.573 95.079M570.795 73.3004H645.398M516.398 134.705H584.265M516.398 134.705L522.346 152.781M516.398 134.705H448.53M516.398 134.705L510.081 115.506M584.265 134.705L588.23 152.781M584.265 134.705L580.054 115.506M584.265 134.705H652.132M522.346 152.781H588.23M522.346 152.781H456.461M522.346 152.781L527.956 169.832M588.23 152.781L591.971 169.832M588.23 152.781H654.116M538.272 201.184H598.849M538.272 201.184L543.025 215.63M538.272 201.184H477.696M538.272 201.184L533.256 185.94M598.849 201.184L602.017 215.63M598.849 201.184L595.505 185.94M598.849 201.184H659.424M543.025 215.63H602.017M543.025 215.63H484.035M543.025 215.63L547.537 229.34M602.017 215.63L605.024 229.34M602.017 215.63H661.008M555.903 254.764H610.601M555.903 254.764L559.788 266.573M555.903 254.764H501.204M555.903 254.764L551.824 242.368M610.601 254.764L613.193 266.573M610.601 254.764L607.882 242.368M610.601 254.764H665.301M559.788 266.573H613.193M559.788 266.573H506.384M559.788 266.573L561.199 270.858L563.494 277.836M613.193 266.573L615.663 277.836M613.193 266.573H666.596M570.415 298.867H620.276M570.415 298.867L573.651 308.7M570.415 298.867H520.552M570.415 298.867L567.893 291.202L567.032 288.589M620.276 298.867L621.097 302.605L622.433 308.7M620.276 298.867L618.022 288.589M620.276 298.867H670.139M573.651 308.7L574.044 309.9L576.749 318.117M573.651 308.7H622.433M573.651 308.7H524.867M622.433 308.7L623.219 312.279L623.477 313.46L623.735 314.633L624.499 318.117M622.433 308.7H671.217M582.568 335.804H628.379M582.568 335.804L583.95 340.003L584.291 341.039L584.63 342.071L584.969 343.097L585.304 344.119M582.568 335.804H536.758M582.568 335.804L579.719 327.144M628.379 335.804L629.754 342.071L629.979 343.097L630.203 344.119M628.379 335.804L626.48 327.144M628.379 335.804H674.19M585.304 344.119H630.203M585.304 344.119H540.406M585.304 344.119L586.96 349.15L587.286 350.141L587.934 352.109M630.203 344.119L631.306 349.15L631.524 350.141L631.74 351.128L631.956 352.109M630.203 344.119H675.102M592.896 367.189H635.264M592.896 367.189L595.24 374.312M592.896 367.189H550.527M592.896 367.189L592.295 365.367L591.385 362.599L590.462 359.794M635.264 367.189L635.064 366.28L633.847 360.734L633.642 359.794M635.264 367.189L636.826 374.312M635.264 367.189H677.632M595.24 374.312H636.826M595.24 374.312H553.653M595.24 374.312L597.499 381.177M636.826 374.312L637.398 376.916L637.586 377.776L637.774 378.632L638.332 381.177M636.826 374.312H678.413M601.78 394.187H641.186M601.78 394.187L603.309 398.834L603.809 400.358M601.78 394.187H562.372M601.78 394.187L600.999 391.818L600.738 391.021L600.474 390.22L599.676 387.798M641.186 394.187L641.358 394.97L641.699 396.526L642.038 398.069L642.539 400.358M641.186 394.187L640.491 391.021L640.316 390.22L639.962 388.609L639.785 387.798M641.186 394.187H680.593M603.809 400.358H642.539M603.809 400.358L605.529 405.585L605.772 406.319M603.809 400.358H565.079M642.539 400.358L642.706 401.114L642.871 401.867L643.036 402.617L643.199 403.364L643.686 405.585L643.848 406.319M642.539 400.358H681.27M826.227 -215.032H932.455M826.227 -215.032L821.449 -171.467M826.227 -215.032H720M826.227 -215.032L831.478 -262.905M932.455 -215.032L922.898 -171.467M932.455 -215.032L942.956 -262.905M932.455 -215.032H1038.68M821.449 -171.467H922.898M821.449 -171.467H720M821.449 -171.467L817.082 -131.652M922.898 -171.467L914.164 -131.652M922.898 -171.467H1024.35M809.386 -61.4897H898.773M809.386 -61.4897L805.979 -30.4204M809.386 -61.4897H720M809.386 -61.4897L813.076 -95.1229M898.773 -61.4897L891.957 -30.4204M898.773 -61.4897L906.151 -95.1229M898.773 -61.4897H988.159M805.979 -30.4204H891.957M805.979 -30.4204H720M805.979 -30.4204L802.821 -1.63371M891.957 -30.4204L885.642 -1.63371M891.957 -30.4204H977.936M797.154 50.0315H874.309M797.154 50.0315L794.602 73.3004M797.154 50.0315H720M797.154 50.0315L799.888 25.1143M874.309 50.0315L869.205 73.3004M874.309 50.0315L879.775 25.1143M874.309 50.0315H951.464M794.602 73.3004H869.205M794.602 73.3004H720M794.602 73.3004L792.214 95.079M869.205 73.3004L864.427 95.079M869.205 73.3004H943.807M787.868 134.705H855.735M787.868 134.705L785.884 152.781M787.868 134.705H720M787.868 134.705L789.973 115.506M855.735 134.705L851.77 152.781M855.735 134.705L859.946 115.506M855.735 134.705H923.602M785.884 152.781H851.77M785.884 152.781H720M785.884 152.781L784.015 169.832M851.77 152.781L848.029 169.832M851.77 152.781H917.654M780.576 201.184H841.151M780.576 201.184L778.992 215.63M780.576 201.184H720M780.576 201.184L782.248 185.94M841.151 201.184L837.983 215.63M841.151 201.184L844.495 185.94M841.151 201.184H901.728M778.992 215.63H837.983M778.992 215.63H720M778.992 215.63L777.487 229.34M837.983 215.63L834.976 229.34M837.983 215.63H896.975M774.699 254.764H829.399M774.699 254.764L773.404 266.573M774.699 254.764H720M774.699 254.764L776.059 242.368M829.399 254.764L826.807 266.573M829.399 254.764L832.118 242.368M829.399 254.764H884.097M773.404 266.573H826.807M773.404 266.573H720M773.404 266.573L772.169 277.836M826.807 266.573L824.337 277.836M826.807 266.573H880.212M769.862 298.867H819.724M769.862 298.867L768.783 308.7M769.862 298.867H720M769.862 298.867L770.989 288.589M819.724 298.867L817.831 307.494L817.567 308.7M819.724 298.867L821.978 288.589M819.724 298.867H869.585M768.783 308.7L768.652 309.9L767.75 318.117M768.783 308.7H817.567M768.783 308.7H720M817.567 308.7L816.781 312.279L816.523 313.46L816.265 314.633L815.501 318.117M817.567 308.7H866.349M765.81 335.804H811.621M765.81 335.804L764.898 344.119M765.81 335.804H720M765.81 335.804L766.162 332.598L766.281 331.518L766.399 330.433L766.639 328.246L766.761 327.144M811.621 335.804L810.246 342.071L809.797 344.119M811.621 335.804L813.52 327.144M811.621 335.804H857.432M764.898 344.119H809.797M764.898 344.119H720M764.898 344.119L764.022 352.109M809.797 344.119L808.694 349.15L808.476 350.141L808.26 351.128L808.044 352.109M809.797 344.119H854.696M762.368 367.189H804.736M762.368 367.189L761.587 374.312M762.368 367.189H720M762.368 367.189L763.179 359.794M804.736 367.189L804.936 366.28L806.153 360.734L806.358 359.794M804.736 367.189L803.174 374.312M804.736 367.189H847.104M761.587 374.312H803.174M761.587 374.312H720M761.587 374.312L760.834 381.177M803.174 374.312L802.602 376.916L802.414 377.776L802.226 378.632L801.668 381.177M803.174 374.312H844.76M759.407 394.187H798.814M759.407 394.187L758.73 400.358M759.407 394.187H720M759.407 394.187L760.108 387.798M798.814 394.187L798.642 394.97L798.3 396.526L798.131 397.3L797.794 398.834L797.627 399.598L797.46 400.358M798.814 394.187L799.509 391.021L799.684 390.22L800.038 388.609L800.215 387.798M798.814 394.187H838.221M758.73 400.358L758.648 401.114L758.564 401.867L758.483 402.617L758.076 406.319M758.73 400.358H797.46M758.73 400.358H720M797.46 400.358H836.191M797.46 400.358L797.129 401.867L796.964 402.617L796.801 403.364L796.314 405.585L796.152 406.319M1251.14 -215.032H1357.36M1251.14 -215.032L1227.24 -171.467M1251.14 -215.032H1144.91M1251.14 -215.032L1277.39 -262.905M1357.36 -215.032L1328.69 -171.467M1357.36 -215.032L1388.87 -262.905M1357.36 -215.032H1463.59M1227.24 -171.467H1328.69M1227.24 -171.467H1125.8M1227.24 -171.467L1205.41 -131.652M1328.69 -171.467L1302.49 -131.652M1328.69 -171.467H1430.14M1166.93 -61.4897H1256.32M1166.93 -61.4897L1149.89 -30.4204M1166.93 -61.4897H1077.55M1166.93 -61.4897L1185.38 -95.1229M1256.32 -61.4897L1235.87 -30.4204M1256.32 -61.4897L1278.45 -95.1229M1256.32 -61.4897H1345.7M1149.89 -30.4204H1235.87M1149.89 -30.4204H1063.91M1149.89 -30.4204L1134.11 -1.63371M1235.87 -30.4204L1216.93 -1.63371M1235.87 -30.4204H1321.85M1105.77 50.0315H1182.93M1105.77 50.0315L1093.01 73.3004M1105.77 50.0315H1028.62M1105.77 50.0315L1119.44 25.1143M1182.93 50.0315L1167.61 73.3004M1182.93 50.0315L1199.33 25.1143M1182.93 50.0315H1260.08M1093.01 73.3004H1167.61M1093.01 73.3004H1018.41M1093.01 73.3004L1081.07 95.079M1167.61 73.3004L1153.28 95.079M1167.61 73.3004H1242.22M1059.34 134.705H1127.2M1059.34 134.705L1049.42 152.781M1059.34 134.705H991.47M1059.34 134.705L1069.87 115.506M1127.2 134.705L1115.31 152.781M1127.2 134.705L1139.84 115.506M1127.2 134.705H1195.07M1049.42 152.781H1115.31M1049.42 152.781H983.539M1049.42 152.781L1040.07 169.832M1115.31 152.781L1104.09 169.832M1115.31 152.781H1181.19M1022.88 201.184H1083.46M1022.88 201.184L1014.96 215.63M1022.88 201.184H962.304M1022.88 201.184L1031.24 185.94M1083.46 201.184L1073.95 215.63M1083.46 201.184L1093.49 185.94M1083.46 201.184H1144.03M1014.96 215.63H1073.95M1014.96 215.63H955.965M1014.96 215.63L1007.44 229.34M1073.95 215.63L1064.93 229.34M1073.95 215.63H1132.94M993.496 254.764H1048.19M993.496 254.764L987.019 266.573M993.496 254.764H938.796M993.496 254.764L1000.29 242.368M1048.19 254.764L1040.42 266.573M1048.19 254.764L1056.35 242.368M1048.19 254.764H1102.89M987.019 266.573H1040.42M987.019 266.573H933.616M987.019 266.573L980.843 277.836M1040.42 266.573L1033.01 277.836M1040.42 266.573H1093.83M969.309 298.867L970 297.607L970.695 296.341L974.945 288.589M969.309 298.867H1019.17M969.309 298.867L963.916 308.7M969.309 298.867H919.448M1019.17 298.867L1012.7 308.7M1019.17 298.867L1025.93 288.589M1019.17 298.867H1069.03M963.916 308.7H1012.7M963.916 308.7H915.133M963.916 308.7L958.752 318.117M1012.7 308.7L1006.5 318.117M1012.7 308.7H1061.48M949.052 335.804H994.864M949.052 335.804L944.492 344.119M949.052 335.804H903.242M949.052 335.804L953.802 327.144M994.864 335.804L991.417 341.039L989.392 344.119M994.864 335.804L1000.56 327.144M994.864 335.804H1040.67M944.492 344.119H989.392M944.492 344.119H899.594M944.492 344.119L940.649 351.128L940.111 352.109M989.392 344.119L984.133 352.109M989.392 344.119H1034.29M931.841 367.189H974.209M931.841 367.189L930.851 368.995L927.935 374.312M931.841 367.189H889.473M931.841 367.189L932.84 365.367L934.868 361.669L935.896 359.794M974.209 367.189L969.521 374.312M974.209 367.189L976.012 364.448L977.229 362.599L979.075 359.794M974.209 367.189H1016.58M927.935 374.312H969.521M927.935 374.312H886.347M927.935 374.312L925.098 379.485L924.169 381.177M969.521 374.312L967.807 376.916L966.678 378.632L965.003 381.177M969.521 374.312H1011.11M917.035 394.187H956.442M917.035 394.187L914.906 398.069L913.651 400.358M917.035 394.187H877.628M917.035 394.187L920.539 387.798M956.442 394.187L953.383 398.834L952.881 399.598L952.381 400.358M956.442 394.187L958.526 391.021L960.646 387.798M956.442 394.187H995.848M913.651 400.358H952.381M913.651 400.358L912.002 403.364L911.189 404.848L910.784 405.585L910.382 406.319M913.651 400.358H874.921M952.381 400.358H991.111M952.381 400.358L948.458 406.319M1493.81 -30.4204H1407.83M1493.81 -30.4204L1465.39 -1.63371M1493.81 -30.4204H1519.57M1493.81 -30.4204L1519.57 -56.5175M1414.39 50.0315H1491.55M1414.39 50.0315L1391.42 73.3004M1414.39 50.0315H1337.24M1414.39 50.0315L1438.99 25.1143M1491.55 50.0315L1466.02 73.3004M1491.55 50.0315L1518.88 25.1143M1491.55 50.0315H1519.57M1391.42 73.3004H1466.02M1391.42 73.3004H1316.82M1391.42 73.3004L1369.92 95.079M1466.02 73.3004L1442.14 95.079M1466.02 73.3004H1519.57M1330.81 134.705H1398.67M1330.81 134.705L1312.96 152.781M1330.81 134.705H1262.94M1330.81 134.705L1349.76 115.506M1398.67 134.705L1378.85 152.781M1398.67 134.705L1419.73 115.506M1398.67 134.705H1466.54M1312.96 152.781H1378.85M1312.96 152.781H1247.08M1312.96 152.781L1296.13 169.832M1378.85 152.781L1360.15 169.832M1378.85 152.781H1444.73M1265.18 201.184H1325.76M1265.18 201.184L1250.92 215.63M1265.18 201.184H1204.61M1265.18 201.184L1280.23 185.94M1325.76 201.184L1309.91 215.63M1325.76 201.184L1342.48 185.94M1325.76 201.184H1386.34M1250.92 215.63H1309.91M1250.92 215.63H1191.93M1250.92 215.63L1237.39 229.34M1309.91 215.63L1294.88 229.34M1309.91 215.63H1368.91M1212.29 254.764H1266.99M1212.29 254.764L1200.64 266.573M1212.29 254.764H1157.59M1212.29 254.764L1224.53 242.368M1266.99 254.764L1254.04 266.573M1266.99 254.764L1280.59 242.368M1266.99 254.764H1321.69M1200.64 266.573H1254.04M1200.64 266.573H1147.23M1200.64 266.573L1189.52 277.836M1254.04 266.573L1241.69 277.836M1254.04 266.573H1307.44M1168.76 298.867H1218.62M1168.76 298.867L1159.05 308.7M1168.76 298.867H1118.89M1168.76 298.867L1178.9 288.589M1218.62 298.867L1207.83 308.7M1218.62 298.867L1229.89 288.589M1218.62 298.867H1268.48M1159.05 308.7H1207.83M1159.05 308.7H1110.27M1159.05 308.7L1149.75 318.117M1207.83 308.7L1197.5 318.117M1207.83 308.7H1256.62M1132.29 335.804H1178.1M1132.29 335.804L1124.09 344.119M1132.29 335.804H1086.48M1132.29 335.804L1140.84 327.144M1178.1 335.804L1168.99 344.119M1178.1 335.804L1187.6 327.144M1178.1 335.804H1223.92M1124.09 344.119H1168.99M1124.09 344.119H1079.19M1124.09 344.119L1116.2 352.109M1168.99 344.119L1160.22 352.109M1168.99 344.119H1213.88M1101.31 367.189H1143.68M1101.31 367.189L1094.28 374.312M1101.31 367.189H1058.94M1101.31 367.189L1103.11 365.367L1104.02 364.448L1108.61 359.794M1143.68 367.189L1135.87 374.312M1143.68 367.189L1151.79 359.794M1143.68 367.189H1186.05M1094.28 374.312H1135.87M1094.28 374.312H1052.69M1094.28 374.312L1087.51 381.177M1135.87 374.312L1128.34 381.177M1135.87 374.312H1177.46M1074.66 394.187H1114.07M1074.66 394.187L1068.57 400.358M1074.66 394.187H1035.26M1074.66 394.187L1080.97 387.798M1114.07 394.187L1108.97 398.834L1108.14 399.598L1107.3 400.358M1114.07 394.187L1121.08 387.798M1114.07 394.187H1153.48M1068.57 400.358H1107.3M1068.57 400.358L1063.41 405.585L1062.69 406.319M1068.57 400.358H1029.84M1107.3 400.358H1146.03M1107.3 400.358L1100.76 406.319M1507.49 201.184L1486.89 215.63M1507.49 201.184H1446.91M1507.49 201.184L1519.57 192.71M1507.49 201.184H1519.57M1486.89 215.63H1427.9M1486.89 215.63L1467.34 229.34M1486.89 215.63H1519.57M1431.09 254.764H1485.79M1431.09 254.764L1414.25 266.573M1431.09 254.764H1376.39M1431.09 254.764L1448.76 242.368M1485.79 254.764L1467.65 266.573M1485.79 254.764L1504.82 242.368M1485.79 254.764H1519.57M1414.25 266.573H1467.65M1414.25 266.573H1360.85M1414.25 266.573L1398.19 277.836M1467.65 266.573L1450.36 277.836M1467.65 266.573H1519.57M1368.2 298.867H1418.07M1368.2 298.867L1354.18 308.7M1368.2 298.867H1318.34M1368.2 298.867L1382.86 288.589M1418.07 298.867L1402.97 308.7M1418.07 298.867L1433.85 288.589M1418.07 298.867H1467.93M1354.18 308.7H1402.97M1354.18 308.7H1305.4M1354.18 308.7L1340.75 318.117M1402.97 308.7L1388.51 318.117M1402.97 308.7H1451.75M1315.54 335.804H1361.35M1315.54 335.804L1303.68 344.119M1315.54 335.804H1269.73M1315.54 335.804L1327.88 327.144M1361.35 335.804L1348.58 344.119M1361.35 335.804L1374.64 327.144M1361.35 335.804H1407.16M1303.68 344.119H1348.58M1303.68 344.119H1258.78M1303.68 344.119L1292.29 352.109M1348.58 344.119L1336.31 352.109M1348.58 344.119H1393.48M1270.79 367.189H1313.15M1270.79 367.189L1260.63 374.312M1270.79 367.189H1228.42M1270.79 367.189L1281.33 359.794M1313.15 367.189L1302.22 374.312M1313.15 367.189L1324.51 359.794M1313.15 367.189H1355.52M1260.63 374.312H1302.22M1260.63 374.312H1219.04M1260.63 374.312L1250.84 381.177M1302.22 374.312L1291.67 381.177M1302.22 374.312H1343.8M1232.29 394.187H1271.7M1232.29 394.187L1223.49 400.358M1232.29 394.187H1192.88M1232.29 394.187L1241.4 387.798M1271.7 394.187L1262.22 400.358M1271.7 394.187L1281.51 387.798M1271.7 394.187H1311.1M1223.49 400.358H1262.22M1223.49 400.358L1214.99 406.319M1223.49 400.358H1184.76M1262.22 400.358H1300.95M1262.22 400.358L1253.07 406.319M1498.78 335.804L1483.27 344.119M1498.78 335.804H1452.97M1498.78 335.804L1514.93 327.144M1498.78 335.804H1519.57M1483.27 344.119H1438.38M1483.27 344.119L1468.38 352.109M1483.27 344.119H1519.57M1440.26 367.189H1482.63M1440.26 367.189L1426.98 374.312M1440.26 367.189H1397.89M1440.26 367.189L1454.05 359.794M1482.63 367.189L1468.56 374.312M1482.63 367.189L1497.23 359.794M1482.63 367.189H1519.57M1426.98 374.312H1468.56M1426.98 374.312H1385.39M1426.98 374.312L1414.18 381.177M1468.56 374.312L1455.01 381.177M1468.56 374.312H1510.15M1389.92 394.187H1429.32M1389.92 394.187L1378.41 400.358M1389.92 394.187H1350.51M1389.92 394.187L1401.83 387.798M1429.32 394.187L1417.14 400.358M1429.32 394.187L1441.94 387.798M1429.32 394.187H1468.73M1378.41 400.358H1417.14M1378.41 400.358L1367.3 406.319M1378.41 400.358H1339.68M1417.14 400.358H1455.87M1417.14 400.358L1405.37 406.319M1441.94 387.798L1455.01 381.177M1441.94 387.798H1482.05M1441.94 387.798H1401.83M1468.73 394.187L1455.87 400.358M1468.73 394.187L1482.05 387.798M1468.73 394.187H1508.14M1455.87 400.358H1494.6M1455.87 400.358L1443.45 406.319M1405.37 406.319H1367.3M1405.37 406.319H1443.45M1405.37 406.319L1393.99 412.083M1482.05 387.798L1495.84 381.177M1482.05 387.798H1519.57M1508.14 394.187L1494.6 400.358M1508.14 394.187L1519.57 388.977M1508.14 394.187H1519.57M1494.6 400.358L1481.53 406.319M1494.6 400.358H1519.57M1443.45 406.319H1481.53M1443.45 406.319L1431.44 412.083M1481.53 406.319L1468.88 412.083M1481.53 406.319H1519.57M1455.01 381.177H1495.84M1455.01 381.177H1414.18M1510.15 374.312L1495.84 381.177M1510.15 374.312L1519.57 369.793M1510.15 374.312H1519.57M1495.84 381.177H1519.57M1414.18 381.177H1373.34M1414.18 381.177L1401.83 387.798M1401.83 387.798H1361.72M1497.23 359.794L1512.4 352.109M1497.23 359.794H1454.05M1497.23 359.794H1519.57M1519.7 367.189H1519.57M1512.4 352.109H1468.38M1512.4 352.109L1519.57 348.477M1512.4 352.109H1519.57M1468.38 352.109H1424.35M1468.38 352.109L1454.05 359.794M1454.05 359.794H1410.87M1281.51 387.798L1291.67 381.177M1281.51 387.798H1321.62M1281.51 387.798H1241.4M1311.1 394.187L1300.95 400.358M1311.1 394.187L1321.62 387.798M1311.1 394.187H1350.51M1300.95 400.358H1339.68M1300.95 400.358L1291.14 406.319M1253.07 406.319H1291.14M1253.07 406.319L1244.22 412.083M1253.07 406.319H1214.99M1321.62 387.798L1332.51 381.177M1321.62 387.798H1361.72M1350.51 394.187L1339.68 400.358M1350.51 394.187L1361.72 387.798M1339.68 400.358L1329.22 406.319M1291.14 406.319H1329.22M1291.14 406.319L1281.66 412.083M1361.72 387.798L1373.34 381.177M1367.3 406.319H1329.22M1367.3 406.319L1356.55 412.083M1329.22 406.319L1319.11 412.083M1291.67 381.177H1332.51M1291.67 381.177H1250.84M1343.8 374.312L1332.51 381.177M1343.8 374.312L1355.52 367.189M1343.8 374.312H1385.39M1332.51 381.177H1373.34M1250.84 381.177H1210.01M1250.84 381.177L1241.4 387.798M1373.34 381.177L1385.39 374.312M1241.4 387.798H1201.29M1355.52 367.189L1367.69 359.794M1355.52 367.189H1397.89M1385.39 374.312L1397.89 367.189M1397.89 367.189L1410.87 359.794M1324.51 359.794L1336.31 352.109M1324.51 359.794H1367.69M1324.51 359.794H1281.33M1367.69 359.794L1380.33 352.109M1367.69 359.794H1410.87M1410.87 359.794L1424.35 352.109M1336.31 352.109H1380.33M1336.31 352.109H1292.29M1393.48 344.119L1380.33 352.109M1393.48 344.119L1407.16 335.804M1393.48 344.119H1438.38M1380.33 352.109H1424.35M1292.29 352.109H1248.27M1292.29 352.109L1281.33 359.794M1424.35 352.109L1438.38 344.119M1281.33 359.794H1238.15M1407.16 335.804L1421.41 327.144M1407.16 335.804H1452.97M1438.38 344.119L1452.97 335.804M1452.97 335.804L1468.17 327.144M1374.64 327.144L1388.51 318.117M1374.64 327.144H1421.41M1374.64 327.144H1327.88M1421.41 327.144L1436.26 318.117M1421.41 327.144H1468.17M1468.17 327.144L1484.01 318.117M1468.17 327.144H1514.93M1514.93 327.144H1519.57M1514.93 327.144L1519.57 324.654M1388.51 318.117H1436.26M1388.51 318.117H1340.75M1451.75 308.7L1436.26 318.117M1451.75 308.7L1467.93 298.867M1451.75 308.7H1500.53M1436.26 318.117H1484.01M1340.75 318.117H1293M1340.75 318.117L1327.88 327.144M1484.01 318.117L1500.53 308.7M1484.01 318.117H1519.57M1327.88 327.144H1281.12M1467.93 298.867L1484.84 288.589M1467.93 298.867H1517.79M1500.53 308.7L1517.79 298.867M1500.53 308.7H1519.57M1519.82 318.117H1519.57M1517.79 298.867L1519.57 297.853M1517.79 298.867H1519.57M1433.85 288.589L1450.36 277.836M1433.85 288.589H1484.84M1433.85 288.589H1382.86M1484.84 288.589L1502.53 277.836M1484.84 288.589H1519.57M1520 297.607L1519.57 297.853M1450.36 277.836H1502.53M1450.36 277.836H1398.19M1502.53 277.836H1519.57M1502.53 277.836L1519.57 267.478M1398.19 277.836H1346.02M1398.19 277.836L1382.86 288.589M1382.86 288.589H1331.87M1504.82 242.368H1448.76M1504.82 242.368L1519.57 232.765M1504.82 242.368H1519.57M1519.98 254.764H1519.57M1448.76 242.368H1392.71M1448.76 242.368L1467.34 229.34M1519.73 232.659L1519.57 232.765M1121.08 387.798L1128.34 381.177M1121.08 387.798H1161.18M1121.08 387.798H1080.97M1153.48 394.187L1146.03 400.358M1153.48 394.187L1161.18 387.798M1153.48 394.187H1192.88M1146.03 400.358H1184.76M1146.03 400.358L1138.84 406.319M1100.76 406.319H1138.84M1100.76 406.319L1098.37 408.503L1094.44 412.083M1100.76 406.319H1062.69M1161.18 387.798L1169.17 381.177M1161.18 387.798H1201.29M1192.88 394.187L1184.76 400.358M1192.88 394.187L1201.29 387.798M1184.76 400.358L1176.92 406.319M1138.84 406.319H1176.92M1138.84 406.319L1131.89 412.083M1201.29 387.798L1210.01 381.177M1214.99 406.319L1206.77 412.083M1214.99 406.319H1176.92M1176.92 406.319L1175.95 407.051L1174.04 408.503L1169.33 412.083M1128.34 381.177H1169.17M1128.34 381.177H1087.51M1177.46 374.312L1169.17 381.177M1177.46 374.312L1186.05 367.189M1177.46 374.312H1219.04M1169.17 381.177H1210.01M1087.51 381.177H1046.67M1087.51 381.177L1080.97 387.798M1210.01 381.177L1219.04 374.312M1080.97 387.798H1040.86M1186.05 367.189L1194.97 359.794M1186.05 367.189H1228.42M1219.04 374.312L1220.2 373.437L1228.42 367.189M1228.42 367.189L1238.15 359.794M1151.79 359.794L1152.83 358.849L1160.22 352.109M1151.79 359.794H1194.97M1151.79 359.794H1108.61M1194.97 359.794L1204.24 352.109M1194.97 359.794H1238.15M1238.15 359.794L1248.27 352.109M1160.22 352.109H1204.24M1160.22 352.109H1116.2M1213.88 344.119L1204.24 352.109M1213.88 344.119L1223.92 335.804M1213.88 344.119H1258.78M1204.24 352.109H1248.27M1116.2 352.109H1072.18M1116.2 352.109L1108.61 359.794M1248.27 352.109L1258.78 344.119M1108.61 359.794H1065.43M1223.92 335.804L1234.36 327.144M1223.92 335.804H1269.73M1258.78 344.119L1269.73 335.804M1269.73 335.804L1281.12 327.144M1187.6 327.144L1197.5 318.117M1187.6 327.144H1234.36M1187.6 327.144H1140.84M1234.36 327.144L1245.25 318.117M1234.36 327.144H1281.12M1281.12 327.144L1293 318.117M1197.5 318.117H1245.25M1197.5 318.117H1149.75M1256.62 308.7L1245.25 318.117M1256.62 308.7L1268.48 298.867M1256.62 308.7H1305.4M1245.25 318.117H1293M1149.75 318.117H1102M1149.75 318.117L1140.84 327.144M1293 318.117L1305.4 308.7M1140.84 327.144H1094.08M1268.48 298.867L1280.88 288.589M1268.48 298.867H1318.34M1305.4 308.7L1318.34 298.867M1318.34 298.867L1331.87 288.589M1229.89 288.589L1241.69 277.836M1229.89 288.589H1280.88M1229.89 288.589H1178.9M1280.88 288.589L1293.85 277.836M1280.88 288.589H1331.87M1331.87 288.589L1346.02 277.836M1241.69 277.836H1293.85M1241.69 277.836H1189.52M1307.44 266.573L1293.85 277.836M1307.44 266.573L1321.69 254.764M1307.44 266.573H1360.85M1293.85 277.836H1346.02M1189.52 277.836H1137.35M1189.52 277.836L1178.9 288.589M1346.02 277.836L1360.85 266.573M1178.9 288.589H1127.91M1321.69 254.764L1336.65 242.368M1321.69 254.764H1376.39M1360.85 266.573L1376.39 254.764M1376.39 254.764L1392.71 242.368M1280.59 242.368L1294.88 229.34M1280.59 242.368H1336.65M1280.59 242.368H1224.53M1336.65 242.368L1352.37 229.34M1336.65 242.368H1392.71M1392.71 242.368L1409.85 229.34M1294.88 229.34H1352.37M1294.88 229.34H1237.39M1368.91 215.63L1352.37 229.34M1368.91 215.63L1386.34 201.184M1368.91 215.63H1427.9M1352.37 229.34H1409.85M1237.39 229.34H1179.9M1237.39 229.34L1224.53 242.368M1409.85 229.34L1427.9 215.63M1409.85 229.34H1467.34M1224.53 242.368H1168.47M1386.34 201.184L1404.73 185.94M1386.34 201.184H1446.91M1427.9 215.63L1446.91 201.184M1467.34 229.34H1519.57M1446.91 201.184L1466.97 185.94M1342.48 185.94L1360.15 169.832M1342.48 185.94H1404.73M1342.48 185.94H1280.23M1404.73 185.94L1424.16 169.832M1404.73 185.94H1466.97M1466.97 185.94L1488.18 169.832M1466.97 185.94H1519.57M1360.15 169.832H1424.16M1360.15 169.832H1296.13M1444.73 152.781L1424.16 169.832M1444.73 152.781L1466.54 134.705M1444.73 152.781H1510.62M1424.16 169.832H1488.18M1296.13 169.832H1232.12M1296.13 169.832L1280.23 185.94M1488.18 169.832L1510.62 152.781M1488.18 169.832H1519.57M1280.23 185.94H1217.98M1466.54 134.705L1489.7 115.506M1466.54 134.705H1519.57M1510.62 152.781H1519.57M1510.62 152.781L1519.57 145.98M1419.73 115.506L1442.14 95.079M1419.73 115.506H1489.7M1419.73 115.506H1349.76M1489.7 115.506L1514.35 95.079M1489.7 115.506H1519.57M1442.14 95.079H1514.35M1442.14 95.079H1369.92M1514.35 95.079L1519.57 90.753M1514.35 95.079H1519.57M1369.92 95.079H1297.71M1369.92 95.079L1349.76 115.506M1349.76 115.506H1279.79M1518.88 25.1143H1438.99M1518.88 25.1143H1519.57M1518.88 25.1143L1519.57 24.4818M1438.99 25.1143H1359.1M1438.99 25.1143L1465.39 -1.63371M960.646 387.798L962.262 385.343L962.805 384.517L965.003 381.177M960.646 387.798H1000.75M960.646 387.798H920.539M995.848 394.187L992.28 398.834L991.111 400.358M995.848 394.187L1000.13 388.609L1000.75 387.798M995.848 394.187H1035.26M991.111 400.358H1029.84M991.111 400.358L986.534 406.319M948.458 406.319H986.534M948.458 406.319L947.02 408.503L944.665 412.083M948.458 406.319H910.382M1000.75 387.798L1002.01 386.165L1005.84 381.177M1000.75 387.798H1040.86M1035.26 394.187L1029.84 400.358M1035.26 394.187L1040.86 387.798M1029.84 400.358L1025.9 404.848L1024.61 406.319M986.534 406.319H1024.61M986.534 406.319L982.109 412.083M1040.86 387.798L1046.67 381.177M1062.69 406.319L1061.96 407.051L1057 412.083M1062.69 406.319H1024.61M1024.61 406.319L1022.69 408.503L1019.55 412.083M965.003 381.177H1005.84M965.003 381.177H924.169M1011.11 374.312L1005.84 381.177M1011.11 374.312L1016.58 367.189M1011.11 374.312H1052.69M1005.84 381.177H1046.67M924.169 381.177H883.335M924.169 381.177L920.539 387.798M1046.67 381.177L1052.69 374.312M920.539 387.798H880.431M1016.58 367.189L1020.1 362.599L1020.82 361.669L1022.25 359.794M1016.58 367.189H1058.94M1052.69 374.312L1058.94 367.189M1058.94 367.189L1065.43 359.794M979.075 359.794L984.133 352.109M979.075 359.794H1022.25M979.075 359.794H935.896M1022.25 359.794L1028.15 352.109M1022.25 359.794H1065.43M1065.43 359.794L1072.18 352.109M984.133 352.109H1028.15M984.133 352.109H940.111M1034.29 344.119L1030.43 349.15L1029.67 350.141L1028.15 352.109M1034.29 344.119L1040.67 335.804M1034.29 344.119H1079.19M1028.15 352.109H1072.18M940.111 352.109H896.089M940.111 352.109L935.896 359.794M1072.18 352.109L1079.19 344.119M935.896 359.794H892.717M1040.67 335.804L1047.32 327.144M1040.67 335.804H1086.48M1079.19 344.119L1086.48 335.804M1086.48 335.804L1094.08 327.144M1000.56 327.144L1003.5 322.678L1004.25 321.547L1006.5 318.117M1000.56 327.144H1047.32M1000.56 327.144H953.802M1047.32 327.144L1054.25 318.117M1047.32 327.144H1094.08M1094.08 327.144L1102 318.117M1006.5 318.117H1054.25M1006.5 318.117H958.752M1061.48 308.7L1054.25 318.117M1061.48 308.7L1069.03 298.867M1061.48 308.7H1110.27M1054.25 318.117H1102M958.752 318.117H911.001M958.752 318.117L957.495 320.409L953.802 327.144M1102 318.117L1110.27 308.7M953.802 327.144H907.042M1069.03 298.867L1076.92 288.589M1069.03 298.867H1118.89M1110.27 308.7L1118.89 298.867M1118.89 298.867L1127.91 288.589M1025.93 288.589L1033.01 277.836M1025.93 288.589H1076.92M1025.93 288.589H974.945M1076.92 288.589L1085.18 277.836M1076.92 288.589H1127.91M1127.91 288.589L1137.35 277.836M1033.01 277.836H1085.18M1033.01 277.836H980.843M1093.83 266.573L1085.18 277.836M1093.83 266.573L1102.89 254.764M1093.83 266.573H1147.23M1085.18 277.836H1137.35M980.843 277.836H928.674M980.843 277.836L974.945 288.589M1137.35 277.836L1147.23 266.573M974.945 288.589H923.957M1102.89 254.764L1112.41 242.368M1102.89 254.764H1157.59M1147.23 266.573L1157.59 254.764M1157.59 254.764L1168.47 242.368M1056.35 242.368L1064.93 229.34M1056.35 242.368H1112.41M1056.35 242.368H1000.29M1112.41 242.368L1122.41 229.34M1112.41 242.368H1168.47M1168.47 242.368L1179.9 229.34M1064.93 229.34H1122.41M1064.93 229.34H1007.44M1132.94 215.63L1122.41 229.34M1132.94 215.63L1144.03 201.184M1132.94 215.63H1191.93M1122.41 229.34H1179.9M1007.44 229.34H949.951M1007.44 229.34L1000.29 242.368M1179.9 229.34L1191.93 215.63M1000.29 242.368H944.235M1144.03 201.184L1155.74 185.94M1144.03 201.184H1204.61M1191.93 215.63L1204.61 201.184M1204.61 201.184L1217.98 185.94M1093.49 185.94L1104.09 169.832M1093.49 185.94H1155.74M1093.49 185.94H1031.24M1155.74 185.94L1168.1 169.832M1155.74 185.94H1217.98M1217.98 185.94L1232.12 169.832M1104.09 169.832H1168.1M1104.09 169.832H1040.07M1181.19 152.781L1168.1 169.832M1181.19 152.781L1195.07 134.705M1181.19 152.781H1247.08M1168.1 169.832H1232.12M1040.07 169.832H976.059M1040.07 169.832L1031.24 185.94M1232.12 169.832L1247.08 152.781M1031.24 185.94H968.992M1195.07 134.705L1209.81 115.506M1195.07 134.705H1262.94M1247.08 152.781L1262.94 134.705M1262.94 134.705L1279.79 115.506M1139.84 115.506L1153.28 95.079M1139.84 115.506H1209.81M1139.84 115.506H1069.87M1209.81 115.506L1225.5 95.079M1209.81 115.506H1279.79M1279.79 115.506L1297.71 95.079M1153.28 95.079H1225.5M1153.28 95.079H1081.07M1242.22 73.3004L1225.5 95.079M1242.22 73.3004L1260.08 50.0315M1242.22 73.3004H1316.82M1225.5 95.079H1297.71M1081.07 95.079H1008.85M1081.07 95.079L1069.87 115.506M1297.71 95.079L1316.82 73.3004M1069.87 115.506H999.893M1260.08 50.0315L1279.21 25.1143M1260.08 50.0315H1337.24M1316.82 73.3004L1337.24 50.0315M1337.24 50.0315L1359.1 25.1143M1199.33 25.1143L1216.93 -1.63371M1199.33 25.1143H1279.21M1199.33 25.1143H1119.44M1279.21 25.1143L1299.75 -1.63371M1279.21 25.1143H1359.1M1359.1 25.1143L1382.57 -1.63371M1216.93 -1.63371H1299.75M1216.93 -1.63371H1134.11M1321.85 -30.4204L1299.75 -1.63371M1321.85 -30.4204L1345.7 -61.4897M1321.85 -30.4204H1407.83M1299.75 -1.63371H1382.57M1134.11 -1.63371H1051.28M1134.11 -1.63371L1119.44 25.1143M1382.57 -1.63371L1407.83 -30.4204M1382.57 -1.63371H1465.39M1119.44 25.1143H1039.55M1345.7 -61.4897L1371.53 -95.1229M1345.7 -61.4897H1435.09M1407.83 -30.4204L1435.09 -61.4897M1465.39 -1.63371H1519.57M1435.09 -61.4897L1464.6 -95.1229M1435.09 -61.4897H1519.57M1278.45 -95.1229L1302.49 -131.652M1278.45 -95.1229H1371.53M1278.45 -95.1229H1185.38M1371.53 -95.1229L1399.57 -131.652M1371.53 -95.1229H1464.6M1464.6 -95.1229L1496.66 -131.652M1464.6 -95.1229H1519.57M1302.49 -131.652H1399.57M1302.49 -131.652H1205.41M1430.14 -171.467L1399.57 -131.652M1430.14 -171.467L1463.59 -215.032M1430.14 -171.467H1519.57M1399.57 -131.652H1496.66M1205.41 -131.652H1108.33M1205.41 -131.652L1185.38 -95.1229M1496.66 -131.652H1519.57M1496.66 -131.652L1519.57 -157.767M1185.38 -95.1229H1092.3M1463.59 -215.032L1500.35 -262.905M1463.59 -215.032H1519.57M1388.87 -262.905L1423.65 -315.758M1388.87 -262.905H1500.35M1388.87 -262.905H1277.39M1500.35 -262.905L1519.57 -287.943M1500.35 -262.905H1519.57M1423.65 -315.758H1306.37M1423.65 -315.758L1519.57 -315.757M1306.37 -315.758H1189.1M1306.37 -315.758L1277.39 -262.905M1277.39 -262.905H1165.91M800.215 387.798L800.394 386.983L800.573 386.165L800.754 385.343L800.935 384.517L801.484 382.018L801.668 381.177M800.215 387.798H840.323M800.215 387.798H760.108M838.221 394.187L836.691 398.834L836.191 400.358M838.221 394.187L839.526 390.22L840.323 387.798M838.221 394.187H877.628M836.191 400.358H874.921M836.191 400.358L834.713 404.848L834.228 406.319M796.152 406.319L795.992 407.051L795.358 409.944L794.888 412.083M796.152 406.319H834.228M796.152 406.319H758.076M840.323 387.798L840.591 386.983L840.861 386.165L841.131 385.343L841.403 384.517L842.502 381.177M840.323 387.798H880.431M877.628 394.187L875.589 398.834L874.921 400.358M877.628 394.187L880.431 387.798M874.921 400.358L873.601 403.364L872.627 405.585L872.305 406.319M834.228 406.319L833.989 407.051L833.511 408.503L833.036 409.944L832.801 410.66L832.332 412.083M834.228 406.319H872.305M880.431 387.798L882.6 382.855L883.335 381.177M910.382 406.319L908.001 410.66L907.221 412.083M910.382 406.319H872.305M872.305 406.319L870.088 411.373L869.776 412.083M801.668 381.177H842.502M801.668 381.177H760.834M844.76 374.312L842.502 381.177M844.76 374.312L847.104 367.189M844.76 374.312H886.347M842.502 381.177H883.335M760.834 381.177H720M760.834 381.177L760.108 387.798M883.335 381.177L886.347 374.312M760.108 387.798H720M847.104 367.189L847.705 365.367L848.615 362.599L849.538 359.794M847.104 367.189H889.473M886.347 374.312L886.732 373.437L889.473 367.189M889.473 367.189L889.871 366.28L890.272 365.367L890.675 364.448L892.717 359.794M806.358 359.794L808.044 352.109M806.358 359.794H849.538M806.358 359.794H763.179M849.538 359.794L852.066 352.109M849.538 359.794H892.717M892.717 359.794L895.233 354.058L895.66 353.086L896.089 352.109M808.044 352.109H852.066M808.044 352.109H764.022M854.696 344.119L855.031 343.097L855.37 342.071L855.709 341.039L857.432 335.804M854.696 344.119L853.368 348.153L853.04 349.15L852.714 350.141L852.066 352.109M854.696 344.119H899.594M852.066 352.109H896.089M764.022 352.109H720M764.022 352.109L763.179 359.794M896.089 352.109L899.594 344.119M763.179 359.794H720M857.432 335.804L859.919 328.246L860.281 327.144M857.432 335.804H903.242M899.594 344.119L900.493 342.071L903.242 335.804M903.242 335.804L904.649 332.598L907.042 327.144M813.52 327.144L814.501 322.678L814.748 321.547L815.501 318.117M813.52 327.144H860.281M813.52 327.144H766.761M860.281 327.144L863.251 318.117M860.281 327.144H907.042M907.042 327.144L911.001 318.117M815.501 318.117H863.251M815.501 318.117H767.75M866.349 308.7L863.251 318.117M866.349 308.7L869.585 298.867M866.349 308.7H915.133M863.251 318.117H911.001M767.75 318.117H720M767.75 318.117L767.499 320.409L767.004 324.923L766.761 327.144M911.001 318.117L915.133 308.7M766.761 327.144H720M869.585 298.867L872.107 291.202L872.968 288.589M869.585 298.867H919.448M915.133 308.7L919.448 298.867M919.448 298.867L921.676 293.786L923.957 288.589M821.978 288.589L824.337 277.836M821.978 288.589H872.968M821.978 288.589H770.989M872.968 288.589L876.506 277.836M872.968 288.589H923.957M923.957 288.589L928.674 277.836M824.337 277.836H876.506M824.337 277.836H772.169M880.212 266.573L879.268 269.438L876.506 277.836M880.212 266.573L884.097 254.764M880.212 266.573H933.616M876.506 277.836H928.674M772.169 277.836H720M772.169 277.836L770.989 288.589M928.674 277.836L933.616 266.573M770.989 288.589H720M884.097 254.764L888.176 242.368M884.097 254.764H938.796M933.616 266.573L938.796 254.764M938.796 254.764L944.235 242.368M832.118 242.368L834.976 229.34M832.118 242.368H888.176M832.118 242.368H776.059M888.176 242.368L892.463 229.34M888.176 242.368H944.235M944.235 242.368L949.951 229.34M834.976 229.34H892.463M834.976 229.34H777.487M896.975 215.63L892.463 229.34M896.975 215.63L901.728 201.184M896.975 215.63H955.965M892.463 229.34H949.951M777.487 229.34H720M777.487 229.34L776.233 240.774L776.059 242.368M949.951 229.34L955.965 215.63M776.059 242.368H720M901.728 201.184L906.744 185.94M901.728 201.184H962.304M955.965 215.63L960.687 204.867L962.304 201.184M962.304 201.184L968.992 185.94M844.495 185.94L848.029 169.832M844.495 185.94H906.744M844.495 185.94H782.248M906.744 185.94L912.044 169.832M906.744 185.94H968.992M968.992 185.94L976.059 169.832M848.029 169.832H912.044M848.029 169.832H784.015M917.654 152.781L912.044 169.832M917.654 152.781L923.602 134.705M917.654 152.781H983.539M912.044 169.832H976.059M784.015 169.832H720M784.015 169.832L782.248 185.94M976.059 169.832L983.539 152.781M782.248 185.94H720M923.602 134.705L929.919 115.506M923.602 134.705H991.47M983.539 152.781L991.47 134.705M991.47 134.705L999.893 115.506M859.946 115.506L864.427 95.079M859.946 115.506H929.919M859.946 115.506H789.973M929.919 115.506L936.641 95.079M929.919 115.506H999.893M999.893 115.506L1008.85 95.079M864.427 95.079H936.641M864.427 95.079H792.214M943.807 73.3004L936.641 95.079M943.807 73.3004L951.464 50.0315M943.807 73.3004H1018.41M936.641 95.079H1008.85M792.214 95.079H720M792.214 95.079L789.973 115.506M1008.85 95.079L1018.41 73.3004M789.973 115.506H720M951.464 50.0315L959.663 25.1143M951.464 50.0315H1028.62M1018.41 73.3004L1028.62 50.0315M1028.62 50.0315L1039.55 25.1143M879.775 25.1143L885.642 -1.63371M879.775 25.1143H959.663M879.775 25.1143H799.888M959.663 25.1143L968.464 -1.63371M959.663 25.1143H1039.55M1039.55 25.1143L1051.28 -1.63371M885.642 -1.63371H968.464M885.642 -1.63371H802.821M977.936 -30.4204L968.464 -1.63371M977.936 -30.4204L988.159 -61.4897M977.936 -30.4204H1063.91M968.464 -1.63371H1051.28M802.821 -1.63371H720M802.821 -1.63371L799.888 25.1143M1051.28 -1.63371L1063.91 -30.4204M799.888 25.1143H720M988.159 -61.4897L999.226 -95.1229M988.159 -61.4897H1077.55M1063.91 -30.4204L1077.55 -61.4897M1077.55 -61.4897L1092.3 -95.1229M906.151 -95.1229L914.164 -131.652M906.151 -95.1229H999.226M906.151 -95.1229H813.076M999.226 -95.1229L1011.25 -131.652M999.226 -95.1229H1092.3M1092.3 -95.1229L1108.33 -131.652M914.164 -131.652H1011.25M914.164 -131.652H817.082M1024.35 -171.467L1011.25 -131.652M1024.35 -171.467L1038.68 -215.032M1024.35 -171.467H1125.8M1011.25 -131.652H1108.33M817.082 -131.652H720M817.082 -131.652L813.076 -95.1229M1108.33 -131.652L1125.8 -171.467M813.076 -95.1229H720M1038.68 -215.032L1054.43 -262.905M1038.68 -215.032H1144.91M1125.8 -171.467L1144.91 -215.032M1144.91 -215.032L1165.91 -262.905M942.956 -262.905L954.549 -315.758M942.956 -262.905H1054.43M942.956 -262.905H831.478M1054.43 -262.905L1071.82 -315.758M1054.43 -262.905H1165.91M1165.91 -262.905L1189.1 -315.758M1071.82 -315.758H954.549M1071.82 -315.758H1189.1M954.549 -315.758H837.275M837.275 -315.758H720M837.275 -315.758L831.478 -262.905M831.478 -262.905H720M639.785 387.798L639.606 386.983L639.427 386.165L639.246 385.343L639.065 384.517L638.7 382.855L638.516 382.018L638.332 381.177M639.785 387.798H679.892M639.785 387.798H599.676M680.593 394.187L681.27 400.358M680.593 394.187L679.892 387.798M680.593 394.187H720M681.27 400.358L681.353 401.114L681.436 401.867L681.517 402.617L681.924 406.319M681.27 400.358H720M643.848 406.319L644.008 407.051L644.642 409.944L645.112 412.083M643.848 406.319H681.924M643.848 406.319H605.772M679.892 387.798L679.803 386.983L679.713 386.165L679.623 385.343L679.166 381.177M679.892 387.798H720M720 394.187V400.358M720 394.187V387.798M720 400.358V406.319M681.924 406.319H720M681.924 406.319L682.163 408.503L682.243 409.225L682.556 412.083M720 387.798V381.177M758.076 406.319L757.837 408.503L757.757 409.225L757.679 409.944L757.6 410.66L757.522 411.373L757.444 412.083M758.076 406.319H720M720 406.319V412.083M638.332 381.177H679.166M638.332 381.177H597.499M678.413 374.312L678.317 373.437L678.221 372.556L677.632 367.189M678.413 374.312L679.166 381.177M678.413 374.312H720M679.166 381.177H720M597.499 381.177H556.665M597.499 381.177L598.05 382.855L598.325 383.687L598.597 384.517L598.869 385.343L599.139 386.165L599.409 386.983L599.676 387.798M720 381.177V374.312M599.676 387.798H559.569M677.632 367.189L676.821 359.794M677.632 367.189H720M720 374.312V367.189M720 367.189V359.794M633.642 359.794L631.956 352.109M633.642 359.794H676.821M633.642 359.794H590.462M676.821 359.794L675.978 352.109M676.821 359.794H720M720 359.794V352.109M631.956 352.109H675.978M631.956 352.109H587.934M675.102 344.119L675.978 352.109M675.102 344.119L674.19 335.804M675.102 344.119H720M675.978 352.109H720M587.934 352.109H543.912M587.934 352.109L590.462 359.794M720 352.109V344.119M590.462 359.794H547.283M674.19 335.804L673.838 332.598L673.481 329.343L673.239 327.144M674.19 335.804H720M720 344.119V335.804M720 335.804V327.144M626.48 327.144L625.499 322.678L625.252 321.547L624.499 318.117M626.48 327.144H673.239M626.48 327.144H579.719M673.239 327.144L672.996 324.923L672.501 320.409L672.25 318.117M673.239 327.144H720M720 327.144V318.117M624.499 318.117H672.25M624.499 318.117H576.749M671.217 308.7L671.348 309.9L672.25 318.117M671.217 308.7L670.139 298.867M671.217 308.7H720M672.25 318.117H720M576.749 318.117H528.999M576.749 318.117L579.719 327.144M720 318.117V308.7M579.719 327.144H532.958M670.139 298.867L669.011 288.589M670.139 298.867H720M720 308.7V298.867M720 298.867V288.589M618.022 288.589L615.663 277.836M618.022 288.589H669.011M618.022 288.589H567.032M669.011 288.589L667.831 277.836M669.011 288.589H720M720 288.589V277.836M615.663 277.836H667.831M615.663 277.836H563.494M666.596 266.573L667.831 277.836M666.596 266.573L665.301 254.764M666.596 266.573H720M667.831 277.836H720M563.494 277.836H511.326M563.494 277.836L567.032 288.589M720 277.836V266.573M567.032 288.589H516.043M665.301 254.764L663.941 242.368M665.301 254.764H720M720 266.573V254.764M720 254.764V242.368M607.882 242.368L605.024 229.34M607.882 242.368H663.941M607.882 242.368H551.824M663.941 242.368L662.513 229.34M663.941 242.368H720M720 242.368V229.34M605.024 229.34H662.513M605.024 229.34H547.537M661.008 215.63L662.513 229.34M661.008 215.63L659.424 201.184M661.008 215.63H720M662.513 229.34H720M547.537 229.34H490.049M547.537 229.34L551.824 242.368M720 229.34V215.63M551.824 242.368H495.765M659.424 201.184L657.752 185.94M659.424 201.184H720M720 215.63V201.184M720 201.184V185.94M595.505 185.94L591.971 169.832M595.505 185.94H657.752M595.505 185.94H533.256M657.752 185.94L655.985 169.832M657.752 185.94H720M720 185.94V169.832M591.971 169.832H655.985M591.971 169.832H527.956M654.116 152.781L655.985 169.832M654.116 152.781L652.132 134.705M654.116 152.781H720M655.985 169.832H720M527.956 169.832H463.941M527.956 169.832L533.256 185.94M720 169.832V152.781M533.256 185.94H471.008M652.132 134.705L650.027 115.506M652.132 134.705H720M720 152.781V134.705M720 134.705V115.506M580.054 115.506L575.573 95.079M580.054 115.506H650.027M580.054 115.506H510.081M650.027 115.506L647.786 95.079M650.027 115.506H720M720 115.506V95.079M575.573 95.079H647.786M575.573 95.079H503.359M645.398 73.3004L647.786 95.079M645.398 73.3004L642.846 50.0315M645.398 73.3004H720M647.786 95.079H720M503.359 95.079H431.146M503.359 95.079L510.081 115.506M720 95.079V73.3004M510.081 115.506H440.107M642.846 50.0315L640.112 25.1143M642.846 50.0315H720M720 73.3004V50.0315M720 50.0315V25.1143M560.225 25.1143L554.358 -1.63371M560.225 25.1143H640.112M560.225 25.1143H480.337M640.112 25.1143L637.179 -1.63371M640.112 25.1143H720M720 25.1143V-1.63371M554.358 -1.63371H637.179M554.358 -1.63371H471.536M634.021 -30.4204L637.179 -1.63371M634.021 -30.4204L630.614 -61.4897M634.021 -30.4204H720M637.179 -1.63371H720M471.536 -1.63371H388.715M471.536 -1.63371L480.337 25.1143M720 -1.63371V-30.4204M480.337 25.1143H400.45M630.614 -61.4897L626.924 -95.1229M630.614 -61.4897H720M720 -30.4204V-61.4897M720 -61.4897V-95.1229M533.849 -95.1229L525.836 -131.652M533.849 -95.1229H626.924M533.849 -95.1229H440.774M626.924 -95.1229L622.918 -131.652M626.924 -95.1229H720M720 -95.1229V-131.652M525.836 -131.652H622.918M525.836 -131.652H428.754M618.551 -171.467L622.918 -131.652M618.551 -171.467L613.773 -215.032M618.551 -171.467H720M622.918 -131.652H720M428.754 -131.652H331.672M428.754 -131.652L440.774 -95.1229M720 -131.652V-171.467M440.774 -95.1229H347.699M613.773 -215.032L608.522 -262.905M613.773 -215.032H720M720 -171.467V-215.032M720 -215.032V-262.905M497.044 -262.905L485.45 -315.758M497.044 -262.905H608.522M497.044 -262.905H385.566M608.522 -262.905L602.725 -315.758M608.522 -262.905H720M720 -262.905V-315.758M602.725 -315.758H485.45M602.725 -315.758H720M485.45 -315.758H368.175M368.175 -315.758H250.9M368.175 -315.758L385.566 -262.905M385.566 -262.905H274.088M479.354 387.798L477.195 384.517L474.997 381.177M479.354 387.798H519.461M479.354 387.798H439.246M522.965 394.187L526.349 400.358M522.965 394.187L519.461 387.798M522.965 394.187H562.372M526.349 400.358H565.079M526.349 400.358L528.811 404.848L529.618 406.319M491.542 406.319H529.618M491.542 406.319L492.98 408.503L495.335 412.083M491.542 406.319H453.466M519.461 387.798L515.831 381.177M519.461 387.798H559.569M562.372 394.187L565.079 400.358M562.372 394.187L559.569 387.798M565.079 400.358L566.399 403.364L567.373 405.585L567.695 406.319M529.618 406.319H567.695M529.618 406.319L531.999 410.66L532.779 412.083M559.569 387.798L557.4 382.855L556.665 381.177M605.772 406.319L606.011 407.051L606.489 408.503L607.199 410.66L607.668 412.083M605.772 406.319H567.695M567.695 406.319L568.015 407.051L568.653 408.503L570.223 412.083M474.997 381.177H515.831M474.997 381.177H434.162M512.065 374.312L512.544 375.184L513.02 376.052L514.902 379.485L515.831 381.177M512.065 374.312L509.149 368.995L508.159 367.189M512.065 374.312H553.653M515.831 381.177H556.665M434.162 381.177H393.328M434.162 381.177L437.992 386.165L439.246 387.798M556.665 381.177L553.653 374.312M439.246 387.798H399.138M508.159 367.189L507.661 366.28L507.16 365.367L505.643 362.599L505.132 361.669L504.104 359.794M508.159 367.189H550.527M553.653 374.312L553.268 373.437L550.527 367.189M550.527 367.189L550.129 366.28L549.728 365.367L549.325 364.448L547.283 359.794M460.925 359.794L455.867 352.109M460.925 359.794H504.104M460.925 359.794H417.745M504.104 359.794L499.889 352.109M504.104 359.794H547.283M547.283 359.794L543.912 352.109M455.867 352.109H499.889M455.867 352.109H411.845M495.508 344.119L499.889 352.109M495.508 344.119L490.948 335.804M495.508 344.119H540.406M499.889 352.109H543.912M411.845 352.109H367.823M411.845 352.109L417.745 359.794M543.912 352.109L540.406 344.119M417.745 359.794H374.565M490.948 335.804L486.198 327.144M490.948 335.804H536.758M540.406 344.119L539.507 342.071L536.758 335.804M536.758 335.804L535.351 332.598L533.923 329.343L532.958 327.144M439.438 327.144L436.499 322.678L433.498 318.117M439.438 327.144H486.198M439.438 327.144H392.677M486.198 327.144L481.248 318.117M486.198 327.144H532.958M532.958 327.144L528.999 318.117M433.498 318.117H481.248M433.498 318.117H385.748M476.084 308.7L481.248 318.117M476.084 308.7L470.691 298.867M476.084 308.7H524.867M481.248 318.117H528.999M385.748 318.117H337.997M385.748 318.117L392.677 327.144M528.999 318.117L524.867 308.7M392.677 327.144H345.917M470.691 298.867L469.305 296.341L465.055 288.589M470.691 298.867H520.552M524.867 308.7L520.552 298.867M520.552 298.867L520 297.607L518.324 293.786L516.043 288.589M414.066 288.589L406.989 277.836M414.066 288.589H465.055M414.066 288.589H363.076M465.055 288.589L459.157 277.836M465.055 288.589H516.043M516.043 288.589L511.326 277.836M406.989 277.836H459.157M406.989 277.836H354.82M452.98 266.573L456.875 273.673L459.157 277.836M452.98 266.573L446.504 254.764M452.98 266.573H506.384M459.157 277.836H511.326M354.82 277.836H302.651M354.82 277.836L363.076 288.589M511.326 277.836L506.384 266.573M363.076 288.589H312.087M446.504 254.764L439.706 242.368M446.504 254.764H501.204M506.384 266.573L501.204 254.764M501.204 254.764L495.765 242.368M383.647 242.368L375.073 229.34M383.647 242.368H439.706M383.647 242.368H327.589M439.706 242.368L432.561 229.34M439.706 242.368H495.765M495.765 242.368L490.049 229.34M375.073 229.34H432.561M375.073 229.34H317.586M425.043 215.63L432.561 229.34M425.043 215.63L417.121 201.184M425.043 215.63H484.035M432.561 229.34H490.049M317.586 229.34H260.099M317.586 229.34L327.589 242.368M490.049 229.34L484.035 215.63M327.589 242.368H271.53M417.121 201.184L408.761 185.94M417.121 201.184H477.696M484.035 215.63L477.696 201.184M477.696 201.184L471.008 185.94M346.513 185.94L335.912 169.832M346.513 185.94H408.761M346.513 185.94H284.265M408.761 185.94L399.927 169.832M408.761 185.94H471.008M471.008 185.94L463.941 169.832M335.912 169.832H399.927M335.912 169.832H271.897M390.576 152.781L399.927 169.832M390.576 152.781L380.663 134.705M390.576 152.781H456.461M399.927 169.832H463.941M271.897 169.832H207.882M271.897 169.832L284.265 185.94M463.941 169.832L456.461 152.781M284.265 185.94H222.017M380.663 134.705L370.134 115.506M380.663 134.705H448.53M456.461 152.781L448.53 134.705M448.53 134.705L440.107 115.506M300.161 115.506L286.718 95.079M300.161 115.506H370.134M300.161 115.506H230.188M370.134 115.506L358.932 95.079M370.134 115.506H440.107M440.107 115.506L431.146 95.079M286.718 95.079H358.932M286.718 95.079H214.505M346.988 73.3004L358.932 95.079M346.988 73.3004L334.227 50.0315M346.988 73.3004H421.591M358.932 95.079H431.146M214.505 95.079H142.291M214.505 95.079L230.188 115.506M431.146 95.079L421.591 73.3004M230.188 115.506H160.215M334.227 50.0315L320.563 25.1143M334.227 50.0315H411.382M421.591 73.3004L411.382 50.0315M411.382 50.0315L400.45 25.1143M240.675 25.1143L223.073 -1.63371M240.675 25.1143H320.563M240.675 25.1143H160.787M320.563 25.1143L305.894 -1.63371M320.563 25.1143H400.45M400.45 25.1143L388.715 -1.63371M223.073 -1.63371H305.894M223.073 -1.63371H140.251M290.106 -30.4204L305.894 -1.63371M290.106 -30.4204L273.068 -61.4897M290.106 -30.4204H376.085M305.894 -1.63371H388.715M140.251 -1.63371H57.4302M140.251 -1.63371L160.787 25.1143M388.715 -1.63371L376.085 -30.4204M160.787 25.1143H80.8992M273.068 -61.4897L254.623 -95.1229M273.068 -61.4897H362.454M376.085 -30.4204L362.454 -61.4897M362.454 -61.4897L347.699 -95.1229M161.548 -95.1229L137.509 -131.652M161.548 -95.1229H254.623M161.548 -95.1229H68.4726M254.623 -95.1229L234.591 -131.652M254.623 -95.1229H347.699M347.699 -95.1229L331.672 -131.652M137.509 -131.652H234.591M137.509 -131.652H40.4268M212.756 -171.467L234.591 -131.652M212.756 -171.467L188.864 -215.032M212.756 -171.467H314.204M234.591 -131.652H331.672M40.4268 -131.652H-56.6551M40.4268 -131.652L68.4726 -95.1229M331.672 -131.652L314.204 -171.467M68.4726 -95.1229H-24.6023M188.864 -215.032L162.61 -262.905M188.864 -215.032H295.091M314.204 -171.467L295.091 -215.032M295.091 -215.032L274.088 -262.905M51.1319 -262.905L16.3506 -315.758M51.1319 -262.905H162.61M51.1319 -262.905H-60.3464M162.61 -262.905L133.626 -315.758M162.61 -262.905H274.088M274.088 -262.905L250.9 -315.758M133.626 -315.758H16.3506M133.626 -315.758H250.9M16.3506 -315.758L-79.5694 -315.757M-60.3464 -262.905L-79.5694 -287.943M-60.3464 -262.905H-79.5694M318.923 387.798L311.661 381.177M318.923 387.798H359.03M318.923 387.798H278.815M365.338 394.187L371.429 400.358M365.338 394.187L359.03 387.798M365.338 394.187H404.745M371.429 400.358H410.159M371.429 400.358L377.314 406.319M339.237 406.319H377.314M339.237 406.319L341.633 408.503L345.559 412.083M339.237 406.319H301.161M359.03 387.798L352.495 381.177M359.03 387.798H399.138M404.745 394.187L410.159 400.358M404.745 394.187L399.138 387.798M410.159 400.358L414.099 404.848L415.39 406.319M377.314 406.319L378.035 407.051L383.003 412.083M377.314 406.319H415.39M399.138 387.798L393.328 381.177M453.466 406.319L457.891 412.083M453.466 406.319H415.39M415.39 406.319L417.306 408.503L420.447 412.083M311.661 381.177H352.495M311.661 381.177H270.827M345.718 374.312L352.495 381.177M345.718 374.312L338.687 367.189M345.718 374.312H387.305M352.495 381.177H393.328M270.827 381.177H229.993M270.827 381.177L278.815 387.798M393.328 381.177L387.305 374.312M278.815 387.798H238.708M338.687 367.189L336.887 365.367L331.386 359.794M338.687 367.189H381.055M387.305 374.312L381.055 367.189M381.055 367.189L374.565 359.794M288.207 359.794L287.171 358.849L279.779 352.109M288.207 359.794H331.386M288.207 359.794H245.027M331.386 359.794L323.801 352.109M331.386 359.794H374.565M374.565 359.794L373.737 358.849L367.823 352.109M279.779 352.109H323.801M279.779 352.109H235.757M315.913 344.119L323.801 352.109M315.913 344.119L307.705 335.804M315.913 344.119H360.812M323.801 352.109H367.823M235.757 352.109H191.734M235.757 352.109L245.027 359.794M367.823 352.109L360.812 344.119M245.027 359.794H201.848M307.705 335.804L299.157 327.144M307.705 335.804H353.516M360.812 344.119L353.516 335.804M353.516 335.804L345.917 327.144M252.397 327.144L242.496 318.117M252.397 327.144H299.157M252.397 327.144H205.636M299.157 327.144L290.246 318.117M299.157 327.144H345.917M345.917 327.144L337.997 318.117M242.496 318.117H290.246M242.496 318.117H194.745M280.951 308.7L290.246 318.117M280.951 308.7L271.243 298.867M280.951 308.7H329.733M290.246 318.117H337.997M194.745 318.117H146.995M194.745 318.117L205.636 327.144M337.997 318.117L329.733 308.7M205.636 327.144H158.876M271.243 298.867L261.098 288.589M271.243 298.867H321.106M329.733 308.7L321.106 298.867M321.106 298.867L312.087 288.589M210.109 288.589L198.314 277.836M210.109 288.589H261.098M210.109 288.589H159.12M261.098 288.589L250.483 277.836M261.098 288.589H312.087M312.087 288.589L302.651 277.836M198.314 277.836H250.483M198.314 277.836H146.146M239.365 266.573L250.483 277.836M239.365 266.573L227.708 254.764M239.365 266.573H292.768M250.483 277.836H302.651M146.146 277.836H93.9771M146.146 277.836L159.12 288.589M302.651 277.836L292.768 266.573M159.12 288.589H108.13M227.708 254.764L215.471 242.368M227.708 254.764H282.407M292.768 266.573L282.407 254.764M282.407 254.764L271.53 242.368M159.412 242.368L145.123 229.34M159.412 242.368H215.471M159.412 242.368H103.354M215.471 242.368L202.61 229.34M215.471 242.368H271.53M271.53 242.368L260.099 229.34M145.123 229.34H202.61M145.123 229.34H87.6347M189.077 215.63L202.61 229.34M189.077 215.63L174.817 201.184M189.077 215.63H248.068M202.61 229.34H260.099M87.6347 229.34H30.1474M87.6347 229.34L103.354 242.368M260.099 229.34L248.068 215.63M103.354 242.368H47.2948M174.817 201.184L159.769 185.94M174.817 201.184H235.393M248.068 215.63L235.393 201.184M235.393 201.184L222.017 185.94M97.5211 185.94L79.8531 169.832M97.5211 185.94H159.769M97.5211 185.94H35.2738M159.769 185.94L143.868 169.832M159.769 185.94H222.017M222.017 185.94L207.882 169.832M79.8531 169.832H143.868M79.8531 169.832H15.8384M127.037 152.781L143.868 169.832M127.037 152.781L109.193 134.705M127.037 152.781H192.921M143.868 169.832H207.882M15.8384 169.832H-48.1763M15.8384 169.832L35.2738 185.94M207.882 169.832L192.921 152.781M35.2738 185.94H-26.9744M109.193 134.705L90.2416 115.506M109.193 134.705H177.061M192.921 152.781L177.061 134.705M177.061 134.705L160.215 115.506M20.2685 115.506L-2.1361 95.079M20.2685 115.506H90.2416M20.2685 115.506H-49.7046M90.2416 115.506L70.0775 95.079M90.2416 115.506H160.215M160.215 115.506L142.291 95.079M-2.1361 95.079H70.0775M-2.1361 95.079H-74.3497M48.5783 73.3004L70.0775 95.079M48.5783 73.3004L25.609 50.0315M48.5783 73.3004H123.181M70.0775 95.079H142.291M-74.3497 95.079L-49.7046 115.506M-74.3497 95.079H-79.5694M-74.3497 95.079L-79.5694 90.753M142.291 95.079L123.181 73.3004M-49.7046 115.506H-79.5694M25.609 50.0315L1.0122 25.1143M25.609 50.0315H102.763M123.181 73.3004L102.763 50.0315M102.763 50.0315L80.8992 25.1143M-78.8756 25.1143H1.0122M-78.8756 25.1143H-79.5694M-78.8756 25.1143L-79.5694 24.4818M1.0122 25.1143L-25.3919 -1.63371M1.0122 25.1143H80.8992M80.8992 25.1143L57.4302 -1.63371M-53.8083 -30.4204L-25.3919 -1.63371M-53.8083 -30.4204H32.1704M-53.8083 -30.4204H-79.5694M-53.8083 -30.4204L-79.5694 -56.5175M-25.3919 -1.63371H57.4302M-25.3919 -1.63371H-79.5694M57.4302 -1.63371L32.1704 -30.4204M32.1704 -30.4204L4.90927 -61.4897M4.90927 -61.4897L-24.6023 -95.1229M4.90927 -61.4897H-79.5694M-24.6023 -95.1229L-56.6551 -131.652M-24.6023 -95.1229H-79.5694M-56.6551 -131.652H-79.5694M-56.6551 -131.652L-79.5694 -157.767M158.492 387.798L148.325 381.177M158.492 387.798H198.6M158.492 387.798H118.384M207.71 394.187L216.508 400.358M207.71 394.187L198.6 387.798M207.71 394.187H247.117M216.508 400.358H255.238M216.508 400.358L225.008 406.319M186.932 406.319H225.008M186.932 406.319L195.782 412.083M186.932 406.319H148.856M198.6 387.798L189.159 381.177M198.6 387.798H238.708M247.117 394.187L255.238 400.358M247.117 394.187L238.708 387.798M255.238 400.358L263.084 406.319M225.008 406.319L226.05 407.051L233.226 412.083M225.008 406.319H263.084M238.708 387.798L229.993 381.177M301.161 406.319L308.114 412.083M301.161 406.319H263.084M263.084 406.319L264.046 407.051L270.67 412.083M148.325 381.177H189.159M148.325 381.177H107.492M179.37 374.312L189.159 381.177M179.37 374.312L169.214 367.189M179.37 374.312H220.958M189.159 381.177H229.993M107.492 381.177H66.6577M107.492 381.177L118.384 387.798M229.993 381.177L220.958 374.312M118.384 387.798H78.2764M169.214 367.189L158.669 359.794M169.214 367.189H211.582M220.958 374.312L219.804 373.437L211.582 367.189M211.582 367.189L201.848 359.794M115.49 359.794L103.69 352.109M115.49 359.794H158.669M115.49 359.794H72.3105M158.669 359.794L147.712 352.109M158.669 359.794H201.848M201.848 359.794L191.734 352.109M103.69 352.109H147.712M103.69 352.109H59.6681M136.319 344.119L147.712 352.109M136.319 344.119L124.463 335.804M136.319 344.119H181.218M147.712 352.109H191.734M59.6681 352.109H15.646M59.6681 352.109L72.3105 359.794M191.734 352.109L181.218 344.119M72.3105 359.794H29.1312M124.463 335.804L112.116 327.144M124.463 335.804H170.274M181.218 344.119L170.274 335.804M170.274 335.804L158.876 327.144M65.3551 327.144L51.4942 318.117M65.3551 327.144H112.116M65.3551 327.144H18.5944M112.116 327.144L99.2451 318.117M112.116 327.144H158.876M158.876 327.144L146.995 318.117M51.4942 318.117H99.2451M51.4942 318.117H3.74406M85.8174 308.7L99.2451 318.117M85.8174 308.7L71.7966 298.867M85.8174 308.7H134.601M99.2451 318.117H146.995M3.74406 318.117H-44.006M3.74406 318.117L18.5944 327.144M146.995 318.117L134.601 308.7M18.5944 327.144H-28.1654M71.7966 298.867L57.1412 288.589M71.7966 298.867H121.658M134.601 308.7L121.658 298.867M121.658 298.867L108.13 288.589M6.15194 288.589L-10.36 277.836M6.15194 288.589H57.1412M6.15194 288.589H-44.8364M57.1412 288.589L41.8086 277.836M57.1412 288.589H108.13M108.13 288.589L93.9771 277.836M-10.36 277.836H41.8086M25.7489 266.573L41.8086 277.836M25.7489 266.573L8.91129 254.764M25.7489 266.573H79.1535M41.8086 277.836H93.9771M93.9771 277.836L79.1535 266.573M-44.8364 288.589H-79.5694M8.91129 254.764L-8.76419 242.368M8.91129 254.764H63.6102M79.1535 266.573L63.6102 254.764M63.6102 254.764L47.2948 242.368M-64.8232 242.368H-8.76419M-64.8232 242.368H-79.5694M-64.8232 242.368L-79.5694 232.765M-8.76419 242.368L-27.3409 229.34M-8.76419 242.368H47.2948M47.2948 242.368L30.1474 229.34M-46.8887 215.63L-27.3409 229.34M-46.8887 215.63L-67.4867 201.184M-46.8887 215.63H12.1029M-46.8887 215.63H-79.5694M-27.3409 229.34H30.1474M-27.3409 229.34H-79.5694M30.1474 229.34L12.1029 215.63M-79.7318 232.659L-79.5694 232.765M-67.4867 201.184H-6.91103M-67.4867 201.184H-79.5694M-67.4867 201.184L-79.5694 192.71M12.1029 215.63L-6.91103 201.184M-6.91103 201.184L-26.9744 185.94M-26.9744 185.94L-48.1763 169.832M-26.9744 185.94H-79.5694M-70.6175 152.781L-48.1763 169.832M-70.6175 152.781H-79.5694M-70.6175 152.781L-79.5694 145.98M-48.1763 169.832H-79.5694M-1.93871 387.798L-15.01 381.177M-1.93871 387.798H38.1689M-1.93871 387.798H-42.0471M50.0825 394.187L61.5871 400.358M50.0825 394.187L38.1689 387.798M50.0825 394.187H89.4896M61.5871 400.358H100.317M61.5871 400.358L72.7028 406.319M34.6266 406.319H72.7028M34.6266 406.319L46.0055 412.083M34.6266 406.319H-3.44956M38.1689 387.798L25.8238 381.177M38.1689 387.798H78.2764M89.4896 394.187L100.317 400.358M89.4896 394.187L78.2764 387.798M100.317 400.358L110.779 406.319M72.7028 406.319H110.779M72.7028 406.319L83.4503 412.083M78.2764 387.798L66.6577 381.177M148.856 406.319L158.338 412.083M148.856 406.319H110.779M110.779 406.319L120.894 412.083M-15.01 381.177H25.8238M-15.01 381.177H-55.8438M13.0232 374.312L25.8238 381.177M13.0232 374.312L-0.257941 367.189M13.0232 374.312H54.61M25.8238 381.177H66.6577M-55.8438 381.177L-42.0471 387.798M-55.8438 381.177H-79.5694M66.6577 381.177L54.61 374.312M-42.0471 387.798H-79.5694M-0.257941 367.189L-14.048 359.794M-0.257941 367.189H42.1101M54.61 374.312L42.1101 367.189M42.1101 367.189L29.1312 359.794M-57.2273 359.794L-72.3983 352.109M-57.2273 359.794H-14.048M-57.2273 359.794H-79.5694M-14.048 359.794L-28.3761 352.109M-14.048 359.794H29.1312M29.1312 359.794L15.646 352.109M-43.2748 344.119L-28.3761 352.109M-43.2748 344.119L-58.7789 335.804M-43.2748 344.119H1.62355M-43.2748 344.119H-79.5694M-28.3761 352.109H-72.3983M-28.3761 352.109H15.646M-72.3983 352.109L-79.5694 348.477M-72.3983 352.109H-79.5694M15.646 352.109L1.62355 344.119M-58.7789 335.804L-74.9261 327.144M-58.7789 335.804H-12.9686M-58.7789 335.804H-79.5694M1.62355 344.119L-12.9686 335.804M-12.9686 335.804L-28.1654 327.144M-74.9261 327.144H-28.1654M-74.9261 327.144L-79.5694 324.654M-74.9261 327.144H-79.5694M-28.1654 327.144L-44.006 318.117M-60.5322 308.7L-44.006 318.117M-60.5322 308.7L-77.7887 298.867M-60.5322 308.7H-79.5694M-44.006 318.117H-79.5694M-79.8193 318.117H-79.5694M-77.7887 298.867H-79.5694M-77.7887 298.867L-79.5694 297.853M-80 297.607L-79.5694 297.853M-68.1381 394.187L-54.6037 400.358M-68.1381 394.187H-79.5694M-68.1381 394.187L-79.5694 388.977M-54.6037 400.358L-41.5257 406.319M-54.6037 400.358H-79.5694M-3.44956 406.319L8.56148 412.083M-3.44956 406.319H-41.5257M-41.5257 406.319L-28.8825 412.083M-41.5257 406.319H-79.5694M1244.22 412.083H1281.66M1244.22 412.083H1206.77M1272.49 417.658L1274.75 416.281L1281.66 412.083M1272.49 417.658H1309.32M1281.66 412.083H1319.11M1309.32 417.658L1311.74 416.281L1312.95 415.589L1319.11 412.083M1319.11 412.083H1356.55M1356.55 412.083H1393.99M1206.77 412.083H1169.33M1393.99 412.083H1431.44M1431.44 412.083L1419.82 417.658M1431.44 412.083H1468.88M1419.82 417.658H1456.65M1094.44 412.083H1131.89M1094.44 412.083H1057M1125.16 417.658L1126.82 416.281L1127.66 415.589L1131.89 412.083M1125.16 417.658H1161.99M1131.89 412.083H1169.33M1161.99 417.658L1169.33 412.083M1057 412.083H1019.55M944.665 412.083H982.109M944.665 412.083H907.221M977.828 417.658L978.356 416.972L978.885 416.281L979.417 415.589L982.109 412.083M977.828 417.658H1014.66M982.109 412.083H1019.55M1014.66 417.658L1019.55 412.083M907.221 412.083H869.776M794.888 412.083H832.332M794.888 412.083H757.444M830.498 417.658L832.332 412.083M830.498 417.658H867.331M832.332 412.083H869.776M867.331 417.658L867.632 416.972L867.934 416.281L868.239 415.589L869.776 412.083M757.444 412.083H720M645.112 412.083H682.556M645.112 412.083H607.668M683.167 417.658L682.556 412.083M683.167 417.658H720M682.556 412.083H720M720 417.658V412.083M607.668 412.083H570.223M495.335 412.083H532.779M495.335 412.083H457.891M535.837 417.658L535.082 416.281L533.553 413.494L532.779 412.083M535.837 417.658H572.669M532.779 412.083H570.223M572.669 417.658L572.368 416.972L572.066 416.281L571.762 415.589L570.223 412.083M457.891 412.083H420.447M345.559 412.083H383.003M345.559 412.083H308.114M388.507 417.658L387.148 416.281L386.464 415.589L383.003 412.083M388.507 417.658H425.34M383.003 412.083H420.447M425.34 417.658L424.737 416.972L420.447 412.083M308.114 412.083H270.67M195.782 412.083H233.226M195.782 412.083H158.338M241.176 417.658L239.213 416.281L238.225 415.589L233.226 412.083M241.176 417.658H278.009M233.226 412.083H270.67M278.009 417.658L277.104 416.972L270.67 412.083M158.338 412.083H120.894M46.0055 412.083H83.4503M46.0055 412.083H8.56148M93.8456 417.658L83.4503 412.083M93.8456 417.658H130.678M83.4503 412.083H120.894M130.678 417.658L128.263 416.281L127.047 415.589L120.894 412.083M8.56148 412.083H-28.8825M-53.4843 417.658L-66.3265 412.083M-53.4843 417.658H-16.6516M-53.4843 417.658H-79.5694M-66.3265 412.083H-28.8825M-66.3265 412.083L-79.5694 406.333M-66.3265 412.083H-79.5694M-16.6516 417.658L-19.6716 416.281L-28.8825 412.083M1456.65 417.658L1459.67 416.281L1468.88 412.083M1468.88 412.083H1506.33M1506.33 412.083L1519.57 406.333M1506.33 412.083H1519.57M1519.57 145.98V152.781M1519.57 145.98V134.705M1519.57 152.781V169.832M1519.57 134.705V131.336V115.506M1519.57 115.506V95.079M1519.57 277.836V288.589M1519.57 277.836V267.478M1519.57 417.658V412.083M1519.57 412.083V406.333M1519.57 406.333L1519.6 406.319H1519.57M1519.57 406.333V406.319M1519.57 406.319V400.358M1519.57 400.358V394.187M1519.57 394.187V388.977M1519.57 388.977V387.798M1519.57 387.798V381.177M1519.57 381.177V374.312M1519.57 374.312V369.793M1519.57 369.793V367.189M1519.57 367.189V359.794M1519.57 359.794V352.109M1519.57 352.109V348.477M1519.57 348.477V344.119M1519.57 344.119V335.804M1519.57 335.804V327.144M1519.57 327.144V324.654M1519.57 324.654V318.117M1519.57 318.117V308.7M1519.57 308.7V298.867M1519.57 298.867V297.853M1519.57 297.853V288.589M1519.57 266.573V254.764M1519.57 266.573V267.478M1519.57 254.764V242.368M1519.57 242.368V232.765M1519.57 232.765V229.34M1519.57 229.34V215.63M1519.57 215.63V201.184M1519.57 201.184V192.71M1519.57 192.71V185.94M1519.57 185.94V169.832M1519.57 95.079V90.753M1519.57 90.753V73.3004M1519.57 73.3004V50.0315M1519.57 50.0315V25.1143M1519.57 25.1143V24.4818M1519.57 24.4818V-1.63371M1519.57 -1.63371V-30.4204M1519.57 -30.4204V-56.5175M1519.57 -56.5175V-61.4897M1519.57 -61.4897V-95.1229M1519.57 -95.1229V-131.652M1519.57 -131.652V-157.767M1519.57 -157.767V-171.467M1519.57 -171.467V-215.032M1519.57 -215.032V-262.905M1519.57 -262.905V-287.943M1519.57 -287.943V-315.757M1519.57 -315.757V-315.945H-79.5694V-315.757M-79.5694 266.573V254.764M-79.5694 266.573V267.478M-79.5694 267.478V277.836M-79.5694 277.836V288.589M-79.5694 288.589V297.853M-79.5694 297.853V298.867M-79.5694 298.867V308.7M-79.5694 308.7V318.117M-79.5694 318.117V324.654M-79.5694 324.654V327.144M-79.5694 327.144V335.804M-79.5694 335.804V344.119M-79.5694 344.119V348.477M-79.5694 348.477V352.109M-79.5694 352.109V359.794M-79.5694 359.794V367.189M-79.5694 367.189V369.793M-79.5694 369.793V374.312M-79.5694 374.312V381.177M-79.5694 381.177V387.798M-79.5694 387.798V388.977M-79.5694 388.977V394.187M-79.5694 394.187V400.358M-79.5694 400.358V406.319M-79.5694 406.319H-79.6019L-79.5694 406.333M-79.5694 406.319V406.333M-79.5694 406.333V412.083M-79.5694 412.083V417.658M-79.5694 -315.757V-287.943M-79.5694 -287.943V-262.905M-79.5694 -262.905V-215.033M-79.5694 -215.033V-171.467M-79.5694 -171.467V-157.767M-79.5694 -157.767V-131.652M-79.5694 -131.652V-95.1229M-79.5694 -95.1229V-61.4897M-79.5694 -61.4897V-56.5175M-79.5694 -56.5175V-30.4204M-79.5694 -30.4204V-1.63371M-79.5694 -1.63371V24.4818M-79.5694 24.4818V25.1143M-79.5694 25.1143V50.0315M-79.5694 50.0315V73.3004M-79.5694 73.3004V90.753M-79.5694 90.753V95.079M-79.5694 95.079V115.506M-79.5694 115.506V134.705M-79.5694 134.705V145.98M-79.5694 145.98V152.781M-79.5694 152.781V169.832M-79.5694 169.832V185.94M-79.5694 185.94V192.71M-79.5694 192.71V201.184M-79.5694 201.184V215.63M-79.5694 215.63V229.34M-79.5694 229.34V232.765M-79.5694 232.765V242.368M-79.5694 242.368V254.764" stroke="url(#paint0_radial_386_76)" stroke-opacity="0.6" stroke-width="1.8895" stroke-miterlimit="10" stroke-linecap="round" stroke-linejoin="round"/>
</g>
<defs>
<radialGradient id="paint0_radial_386_76" cx="0" cy="0" r="1" gradientUnits="userSpaceOnUse" gradientTransform="translate(720 -288.708) rotate(90) scale(808.763 1751.04)">
<stop offset="0.18" stop-color="#3D3D3D"/>
<stop offset="0.495" stop-color="#3D3D3D" stop-opacity="0.1"/>
<stop offset="0.925" stop-color="#3D3D3D" stop-opacity="0"/>
</radialGradient>
<clipPath id="clip0_386_76">
<rect width="1440" height="490" fill="white"/>
</clipPath>
</defs>
</svg>