<svg xmlns="http://www.w3.org/2000/svg" width="41" height="42" viewBox="0 0 41 42" fill="none">
<circle cx="12.5059" cy="29.2208" r="12.5059" fill="url(#paint0_linear_224_6171)"/>
<g clip-path="url(#clip0_224_6171)">
<g filter="url(#filter0_b_224_6171)">
<path d="M26.0483 2.27832C28.3356 2.27831 30.1288 2.27831 31.5701 2.39606C33.0377 2.51597 34.2501 2.76418 35.3475 3.32334C37.1516 4.24256 38.6184 5.70932 39.5376 7.5134C40.0967 8.6108 40.3449 9.82322 40.4648 11.2908C40.5826 12.732 40.5826 14.5252 40.5826 16.8123V16.9246C40.5826 19.2118 40.5826 21.0051 40.4648 22.4463C40.3449 23.9139 40.0967 25.1264 39.5376 26.2238C38.6184 28.0278 37.1516 29.4946 35.3475 30.4138C34.2501 30.973 33.0377 31.2212 31.5701 31.3411C30.1289 31.4588 28.3357 31.4588 26.0486 31.4588H22.2406V34.5169C23.2817 34.5897 24.318 34.7535 25.3375 35.0084L27.9631 35.6648C28.6332 35.8323 29.0406 36.5113 28.8731 37.1814C28.7055 37.8514 28.0265 38.2588 27.3565 38.0913L24.7308 37.4349C23.5028 37.1279 22.2464 36.9744 20.99 36.9744C19.7336 36.9744 18.4772 37.1279 17.2491 37.4349L14.6234 38.0913C13.9534 38.2588 13.2744 37.8514 13.1069 37.1814C12.9394 36.5113 13.3468 35.8323 14.0168 35.6648L16.6425 35.0084C17.662 34.7535 18.6983 34.5897 19.7394 34.5169V31.4588H15.9315C13.6444 31.4588 11.851 31.4588 10.4098 31.3411C8.94224 31.2212 7.72982 30.973 6.63241 30.4138C4.82834 29.4946 3.36158 28.0278 2.44236 26.2238C1.8832 25.1264 1.63499 23.9139 1.51508 22.4463C1.39733 21.0051 1.39733 19.2118 1.39734 16.9245V16.8126C1.39733 14.5253 1.39733 12.7321 1.51508 11.2908C1.63499 9.82322 1.8832 8.6108 2.44236 7.5134C3.36158 5.70932 4.82834 4.24256 6.63241 3.32334C7.72982 2.76418 8.94224 2.51597 10.4098 2.39606C11.8511 2.27831 13.6443 2.27831 15.9316 2.27832H26.0483Z" fill="#63D3FF" fill-opacity="0.2"/>
<path d="M26.0483 2.27832C28.3356 2.27831 30.1288 2.27831 31.5701 2.39606C33.0377 2.51597 34.2501 2.76418 35.3475 3.32334C37.1516 4.24256 38.6184 5.70932 39.5376 7.5134C40.0967 8.6108 40.3449 9.82322 40.4648 11.2908C40.5826 12.732 40.5826 14.5252 40.5826 16.8123V16.9246C40.5826 19.2118 40.5826 21.0051 40.4648 22.4463C40.3449 23.9139 40.0967 25.1264 39.5376 26.2238C38.6184 28.0278 37.1516 29.4946 35.3475 30.4138C34.2501 30.973 33.0377 31.2212 31.5701 31.3411C30.1289 31.4588 28.3357 31.4588 26.0486 31.4588H22.2406V34.5169C23.2817 34.5897 24.318 34.7535 25.3375 35.0084L27.9631 35.6648C28.6332 35.8323 29.0406 36.5113 28.8731 37.1814C28.7055 37.8514 28.0265 38.2588 27.3565 38.0913L24.7308 37.4349C23.5028 37.1279 22.2464 36.9744 20.99 36.9744C19.7336 36.9744 18.4772 37.1279 17.2491 37.4349L14.6234 38.0913C13.9534 38.2588 13.2744 37.8514 13.1069 37.1814C12.9394 36.5113 13.3468 35.8323 14.0168 35.6648L16.6425 35.0084C17.662 34.7535 18.6983 34.5897 19.7394 34.5169V31.4588H15.9315C13.6444 31.4588 11.851 31.4588 10.4098 31.3411C8.94224 31.2212 7.72982 30.973 6.63241 30.4138C4.82834 29.4946 3.36158 28.0278 2.44236 26.2238C1.8832 25.1264 1.63499 23.9139 1.51508 22.4463C1.39733 21.0051 1.39733 19.2118 1.39734 16.9245V16.8126C1.39733 14.5253 1.39733 12.7321 1.51508 11.2908C1.63499 9.82322 1.8832 8.6108 2.44236 7.5134C3.36158 5.70932 4.82834 4.24256 6.63241 3.32334C7.72982 2.76418 8.94224 2.51597 10.4098 2.39606C11.8511 2.27831 13.6443 2.27831 15.9316 2.27832H26.0483Z" stroke="url(#paint1_linear_224_6171)" stroke-width="0.500237" stroke-linecap="round"/>
</g>
</g>
<defs>
<filter id="filter0_b_224_6171" x="-10.8585" y="-9.97738" width="63.6969" height="60.3622" filterUnits="userSpaceOnUse" color-interpolation-filters="sRGB">
<feFlood flood-opacity="0" result="BackgroundImageFix"/>
<feGaussianBlur in="BackgroundImageFix" stdDeviation="6.00285"/>
<feComposite in2="SourceAlpha" operator="in" result="effect1_backgroundBlur_224_6171"/>
<feBlend mode="normal" in="SourceGraphic" in2="effect1_backgroundBlur_224_6171" result="shape"/>
</filter>
<linearGradient id="paint0_linear_224_6171" x1="0" y1="29.2208" x2="25.0119" y2="29.2208" gradientUnits="userSpaceOnUse">
<stop stop-color="#56CCF2"/>
<stop offset="1" stop-color="#2F80ED"/>
</linearGradient>
<linearGradient id="paint1_linear_224_6171" x1="1.39734" y1="2.27832" x2="37.128" y2="41.2928" gradientUnits="userSpaceOnUse">
<stop stop-color="white" stop-opacity="0.25"/>
<stop offset="1" stop-color="white" stop-opacity="0"/>
</linearGradient>
<clipPath id="clip0_224_6171">
<rect width="40.019" height="40.019" fill="white" transform="translate(0.980469 0.277344)"/>
</clipPath>
</defs>
</svg>