<svg xmlns="http://www.w3.org/2000/svg" width="38" height="34" viewBox="0 0 38 34" fill="none">
<circle cx="10.7357" cy="11.6283" r="10.3327" fill="url(#paint0_linear_224_6154)"/>
<g filter="url(#filter0_b_224_6154)">
<g filter="url(#filter1_b_224_6154)">
<path fill-rule="evenodd" clip-rule="evenodd" d="M34.847 16.9998C34.847 24.6086 28.6789 30.7767 21.0701 30.7767C13.4613 30.7767 7.29321 24.6086 7.29321 16.9998C7.29321 9.39103 13.4613 3.2229 21.0701 3.2229C28.6789 3.2229 34.847 9.39103 34.847 16.9998Z" fill="#5925BA" fill-opacity="0.35"/>
<path d="M21.0701 30.9833C28.793 30.9833 35.0537 24.7227 35.0537 16.9998C35.0537 9.2769 28.793 3.01625 21.0701 3.01625C13.3472 3.01625 7.08656 9.2769 7.08656 16.9998C7.08656 24.7227 13.3472 30.9833 21.0701 30.9833Z" stroke="url(#paint1_linear_224_6154)" stroke-width="0.413307" stroke-linecap="round"/>
</g>
</g>
<g filter="url(#filter2_d_224_6154)">
<g filter="url(#filter3_d_224_6154)">
<path fill-rule="evenodd" clip-rule="evenodd" d="M13.706 18.8379C14.2126 18.5752 14.8363 18.7729 15.099 19.2795C15.4697 19.9945 16.241 20.9037 17.3114 21.6315C18.3724 22.3529 19.6661 22.855 21.0701 22.855C22.4741 22.855 23.7678 22.3529 24.8289 21.6315C25.8993 20.9037 26.6705 19.9945 27.0413 19.2795C27.304 18.7729 27.9276 18.5752 28.4342 18.8379C28.9408 19.1006 29.1385 19.7242 28.8759 20.2308C28.3281 21.2871 27.3084 22.4445 25.9908 23.3404C24.6639 24.2427 22.9726 24.9215 21.0701 24.9215C19.1677 24.9215 17.4764 24.2427 16.1494 23.3404C14.8318 22.4445 13.8121 21.2871 13.2644 20.2308C13.0017 19.7242 13.1994 19.1005 13.706 18.8379ZM16.9371 12.8667C17.6979 12.8667 18.3147 12.2499 18.3147 11.489C18.3147 10.7281 17.6979 10.1113 16.9371 10.1113C16.1762 10.1113 15.5594 10.7281 15.5594 11.489C15.5594 12.2499 16.1762 12.8667 16.9371 12.8667ZM25.2032 12.8667C25.9641 12.8667 26.5809 12.2499 26.5809 11.489C26.5809 10.7281 25.9641 10.1113 25.2032 10.1113C24.4423 10.1113 23.8255 10.7281 23.8255 11.489C23.8255 12.2499 24.4423 12.8667 25.2032 12.8667Z" fill="url(#paint2_linear_224_6154)"/>
</g>
</g>
<defs>
<filter id="filter0_b_224_6154" x="-3.03948" y="-7.10979" width="48.2191" height="48.2191" filterUnits="userSpaceOnUse" color-interpolation-filters="sRGB">
<feFlood flood-opacity="0" result="BackgroundImageFix"/>
<feGaussianBlur in="BackgroundImageFix" stdDeviation="4.95968"/>
<feComposite in2="SourceAlpha" operator="in" result="effect1_backgroundBlur_224_6154"/>
<feBlend mode="normal" in="SourceGraphic" in2="effect1_backgroundBlur_224_6154" result="shape"/>
</filter>
<filter id="filter1_b_224_6154" x="-3.03948" y="-7.10979" width="48.2191" height="48.2191" filterUnits="userSpaceOnUse" color-interpolation-filters="sRGB">
<feFlood flood-opacity="0" result="BackgroundImageFix"/>
<feGaussianBlur in="BackgroundImageFix" stdDeviation="4.95968"/>
<feComposite in2="SourceAlpha" operator="in" result="effect1_backgroundBlur_224_6154"/>
<feBlend mode="normal" in="SourceGraphic" in2="effect1_backgroundBlur_224_6154" result="shape"/>
</filter>
<filter id="filter2_d_224_6154" x="11.8025" y="8.76567" width="21.2264" height="20.1927" filterUnits="userSpaceOnUse" color-interpolation-filters="sRGB">
<feFlood flood-opacity="0" result="BackgroundImageFix"/>
<feColorMatrix in="SourceAlpha" type="matrix" values="0 0 0 0 0 0 0 0 0 0 0 0 0 0 0 0 0 0 127 0" result="hardAlpha"/>
<feOffset dx="1.34566" dy="1.34566"/>
<feGaussianBlur stdDeviation="1.34566"/>
<feColorMatrix type="matrix" values="0 0 0 0 0.376471 0 0 0 0 0.156863 0 0 0 0 0.811765 0 0 0 0.5 0"/>
<feBlend mode="normal" in2="BackgroundImageFix" result="effect1_dropShadow_224_6154"/>
<feBlend mode="normal" in="SourceGraphic" in2="effect1_dropShadow_224_6154" result="shape"/>
</filter>
<filter id="filter3_d_224_6154" x="11.8025" y="8.76567" width="21.2264" height="20.1927" filterUnits="userSpaceOnUse" color-interpolation-filters="sRGB">
<feFlood flood-opacity="0" result="BackgroundImageFix"/>
<feColorMatrix in="SourceAlpha" type="matrix" values="0 0 0 0 0 0 0 0 0 0 0 0 0 0 0 0 0 0 127 0" result="hardAlpha"/>
<feOffset dx="1.34566" dy="1.34566"/>
<feGaussianBlur stdDeviation="1.34566"/>
<feColorMatrix type="matrix" values="0 0 0 0 0.376471 0 0 0 0 0.156863 0 0 0 0 0.811765 0 0 0 0.5 0"/>
<feBlend mode="normal" in2="BackgroundImageFix" result="effect1_dropShadow_224_6154"/>
<feBlend mode="normal" in="SourceGraphic" in2="effect1_dropShadow_224_6154" result="shape"/>
</filter>
<linearGradient id="paint0_linear_224_6154" x1="0.403076" y1="21.961" x2="21.5088" y2="1.75561" gradientUnits="userSpaceOnUse">
<stop stop-color="#4C2094"/>
<stop offset="1" stop-color="#712EFF"/>
</linearGradient>
<linearGradient id="paint1_linear_224_6154" x1="7.29321" y1="3.2229" x2="34.861" y2="30.7627" gradientUnits="userSpaceOnUse">
<stop stop-color="white" stop-opacity="0.25"/>
<stop offset="1" stop-color="white" stop-opacity="0"/>
</linearGradient>
<linearGradient id="paint2_linear_224_6154" x1="21.2035" y1="28.0767" x2="41.6249" y2="6.66151" gradientUnits="userSpaceOnUse">
<stop stop-color="white"/>
<stop offset="1" stop-color="white" stop-opacity="0.2"/>
</linearGradient>
</defs>
</svg>