<svg xmlns="http://www.w3.org/2000/svg" width="38" height="36" viewBox="0 0 38 36" fill="none">
<circle cx="27.2666" cy="25.026" r="10.3333" fill="url(#paint0_linear_224_6116)"/>
<g filter="url(#filter0_b_224_6116)">
<path fill-rule="evenodd" clip-rule="evenodd" d="M7.37278 4.29906C7.51765 4.19381 7.66745 4.09698 7.82312 4.0079C7.87313 4.11927 7.94386 4.22361 8.03532 4.31506C9.81342 6.09309 11.2091 7.48655 12.4394 8.47124C13.6849 9.46813 14.8514 10.1225 16.1953 10.3353C17.0164 10.4654 17.8528 10.4654 18.6739 10.3353C19.9803 10.1284 21.1187 9.50444 22.3253 8.55421C23.5165 7.6161 24.8538 6.29389 26.5371 4.61176C26.5911 4.55779 26.6379 4.49933 26.6775 4.43758C27.1865 4.83411 27.6377 5.30044 28.0174 5.8231C29.3331 7.63395 29.3331 10.2171 29.3331 15.3834V18.139C29.3331 23.3053 29.3331 25.8884 28.0174 27.6993C27.5925 28.2841 27.0782 28.7984 26.4934 29.2233C24.6825 30.539 22.0994 30.539 16.9331 30.539C11.7668 30.539 9.18363 30.539 7.37278 29.2233C6.78795 28.7984 6.27365 28.2841 5.84874 27.6993C4.53308 25.8884 4.53308 23.3053 4.53308 18.139V15.3834C4.53308 10.2171 4.53308 7.63395 5.84874 5.8231C6.27365 5.23827 6.78795 4.72396 7.37278 4.29906Z" fill="#28D03B" fill-opacity="0.35"/>
<path d="M16.9331 2.9834C20.653 2.9834 23.0337 2.9834 24.7511 3.47454C23.2075 5.01409 22.0529 6.13816 21.0467 6.93059C19.9864 7.76559 19.1737 8.16374 18.3506 8.2941C17.7437 8.39023 17.1255 8.39023 16.5186 8.2941C15.6719 8.16 14.8364 7.74258 13.7308 6.85774C12.7014 6.03385 11.5171 4.87154 9.92928 3.28606C11.5718 2.9834 13.7675 2.9834 16.9331 2.9834Z" fill="#28D03B" fill-opacity="0.35"/>
<path d="M8.01166 3.92325L7.9183 3.71532L7.72048 3.82852C7.55834 3.9213 7.40225 4.0222 7.25131 4.13186C6.64893 4.56951 6.1192 5.09925 5.68154 5.70162C4.99385 6.64815 4.65844 7.78718 4.49207 9.3227C4.32641 10.8517 4.32641 12.7982 4.32641 15.3702V15.3834V18.139V18.1521C4.32641 20.7241 4.32641 22.6706 4.49207 24.1997C4.65844 25.7352 4.99385 26.8742 5.68154 27.8207C6.1192 28.4231 6.64893 28.9528 7.25131 29.3905C8.19783 30.0782 9.33686 30.4136 10.8724 30.58C12.4014 30.7456 14.3479 30.7456 16.92 30.7456H16.9331H16.9462C19.5182 30.7456 21.4647 30.7456 22.9938 30.58C24.5293 30.4136 25.6683 30.0782 26.6149 29.3905C27.2172 28.9528 27.747 28.4231 28.1846 27.8207C28.8723 26.8742 29.2077 25.7352 29.3741 24.1997C29.5397 22.6706 29.5397 20.7242 29.5397 18.1522V18.139V15.3834V15.3702C29.5397 12.7982 29.5397 10.8517 29.3741 9.3227C29.2077 7.78718 28.8723 6.64815 28.1846 5.70162C27.7935 5.16328 27.3288 4.68296 26.8045 4.27453L26.6257 4.13529L26.5035 4.32608C26.4719 4.37538 26.4344 4.42219 26.391 4.46557L26.5371 4.61176L26.391 4.46557C24.7052 6.1502 23.3771 7.46283 22.1975 8.39185C21.0055 9.33056 19.8996 9.93195 18.6416 10.1312C17.8419 10.2579 17.0273 10.2579 16.2276 10.1312C14.9334 9.92622 13.8001 9.29557 12.5685 8.30989C11.3492 7.33396 9.96259 5.94999 8.18145 4.16892C8.10802 4.09549 8.05154 4.01208 8.01166 3.92325ZM24.8971 3.62087L25.146 3.37253L24.8079 3.27584C23.0626 2.77672 20.658 2.77672 16.9775 2.77673L16.9331 2.77673H16.9072C13.7641 2.77673 11.5529 2.77673 9.89183 3.08282L9.5047 3.15415L9.78326 3.4323C11.369 5.01578 12.5617 6.18675 13.6017 7.01909C14.7212 7.91514 15.5899 8.35625 16.4863 8.49823C17.1146 8.59774 17.7546 8.59774 18.3829 8.49823C19.2543 8.36021 20.0996 7.93948 21.1745 7.09296C22.1919 6.2917 23.3552 5.15868 24.8971 3.62087Z" stroke="url(#paint1_linear_224_6116)" stroke-width="0.413333" stroke-linecap="round"/>
</g>
<g filter="url(#filter1_d_224_6116)">
<path fill-rule="evenodd" clip-rule="evenodd" d="M14.1776 15.7278C13.6069 15.7278 13.1442 16.1904 13.1442 16.7611C13.1442 17.3318 13.6069 17.7945 14.1776 17.7945H19.6887C20.2594 17.7945 20.722 17.3318 20.722 16.7611C20.722 16.1904 20.2594 15.7278 19.6887 15.7278H14.1776ZM11.422 21.2389C10.8513 21.2389 10.3887 21.7015 10.3887 22.2722C10.3887 22.8429 10.8513 23.3056 11.422 23.3056H22.4442C23.0149 23.3056 23.4776 22.8429 23.4776 22.2722C23.4776 21.7015 23.0149 21.2389 22.4442 21.2389H11.422Z" fill="url(#paint2_linear_224_6116)"/>
</g>
<defs>
<filter id="filter0_b_224_6116" x="-5.80025" y="-7.34993" width="45.4667" height="48.2223" filterUnits="userSpaceOnUse" color-interpolation-filters="sRGB">
<feFlood flood-opacity="0" result="BackgroundImageFix"/>
<feGaussianBlur in="BackgroundImageFix" stdDeviation="4.96"/>
<feComposite in2="SourceAlpha" operator="in" result="effect1_backgroundBlur_224_6116"/>
<feBlend mode="normal" in="SourceGraphic" in2="effect1_backgroundBlur_224_6116" result="shape"/>
</filter>
<filter id="filter1_d_224_6116" x="9.04293" y="14.382" width="18.4718" height="12.9609" filterUnits="userSpaceOnUse" color-interpolation-filters="sRGB">
<feFlood flood-opacity="0" result="BackgroundImageFix"/>
<feColorMatrix in="SourceAlpha" type="matrix" values="0 0 0 0 0 0 0 0 0 0 0 0 0 0 0 0 0 0 127 0" result="hardAlpha"/>
<feOffset dx="1.34574" dy="1.34574"/>
<feGaussianBlur stdDeviation="1.34574"/>
<feColorMatrix type="matrix" values="0 0 0 0 0.152941 0 0 0 0 0.784314 0 0 0 0 0.235294 0 0 0 0.5 0"/>
<feBlend mode="normal" in2="BackgroundImageFix" result="effect1_dropShadow_224_6116"/>
<feBlend mode="normal" in="SourceGraphic" in2="effect1_dropShadow_224_6116" result="shape"/>
</filter>
<linearGradient id="paint0_linear_224_6116" x1="16.9332" y1="35.3593" x2="38.0403" y2="15.1526" gradientUnits="userSpaceOnUse">
<stop stop-color="#209440"/>
<stop offset="1" stop-color="#2EFF36"/>
</linearGradient>
<linearGradient id="paint1_linear_224_6116" x1="4.53308" y1="2.9834" x2="31.9474" y2="27.6313" gradientUnits="userSpaceOnUse">
<stop stop-color="white" stop-opacity="0.25"/>
<stop offset="1" stop-color="white" stop-opacity="0"/>
</linearGradient>
<linearGradient id="paint2_linear_224_6116" x1="17.0433" y1="24.92" x2="26.2042" y2="9.40923" gradientUnits="userSpaceOnUse">
<stop stop-color="white"/>
<stop offset="1" stop-color="white" stop-opacity="0.2"/>
</linearGradient>
</defs>
</svg>